<svg width="248" height="357" viewBox="0 0 248 357" fill="none" xmlns="http://www.w3.org/2000/svg">
<path d="M194.691 107.27C194.414 107.856 194.036 108.388 193.575 108.843C189.874 112.753 185.083 115.459 179.825 116.612C177.968 117.039 176.069 117.254 174.163 117.253C173.047 110.047 171.91 102.832 171.037 95.598C170.347 89.9465 169.832 84.3047 169.59 78.6337C169.425 75.0797 161.724 62.689 163.297 59.368C165.035 55.7169 177.552 68.2143 178.96 70.5934C186.777 83.7026 189.584 93.8404 194.944 105.114C195.147 105.838 195.056 106.613 194.691 107.27Z" fill="#6544E5"/>
<path d="M181.087 115.291C180.712 115.779 180.289 116.228 179.825 116.631C177.968 117.059 176.069 117.274 174.163 117.272C173.047 110.067 171.91 102.852 171.036 95.6173C171.367 89.9334 171.965 84.2721 172.833 78.6335C172.464 80.9932 175.367 86.1398 176.154 88.4509L179.562 98.5207C181.339 103.774 185.136 110.164 181.087 115.291Z" fill="url(#paint0_linear_14_464)"/>
<path d="M176.902 127.614C177.679 132.352 178.669 137.149 181.009 141.344C182.213 143.5 184.01 145.617 186.447 145.996C187.803 146.124 189.169 145.921 190.428 145.403C193.039 144.506 195.5 143.223 197.731 141.597C199.862 139.962 201.871 138.174 203.742 136.246C206.524 133.62 209.098 130.783 211.442 127.759C212.52 126.303 213.501 124.768 214.676 123.38C219.531 117.602 227.299 115.009 232.805 109.853C234.291 108.474 237.301 102.162 237.078 100.143C235.058 98.9773 230.912 103.667 228.678 104.347C226.445 105.027 224.357 106.134 222.114 106.765C219.428 107.514 216.594 107.551 213.889 106.872C212.976 106.639 211.889 92.2382 210.976 92.5683C210.516 92.7609 210.105 93.0527 209.772 93.4229C207.888 95.365 206.859 111.941 205.295 114.097C203.149 117.01 200.178 119.224 197.236 121.341C196.973 121.525 196.643 121.719 196.352 121.574C196.256 121.502 196.175 121.412 196.115 121.309C196.055 121.205 196.017 121.09 196.002 120.972C195.235 118.126 194.371 115.301 193.429 112.514C192.769 110.572 191.836 108.435 189.885 107.853C188.146 107.338 186.34 108.319 184.787 109.261C182.786 110.484 180.766 111.688 178.776 112.922C177.669 113.601 176.329 114.262 175.804 115.514C175.163 117.019 175.707 119.098 175.892 120.641C176.183 122.982 176.523 125.303 176.902 127.614Z" fill="#F5BCBA"/>
<path d="M194.623 259.687C194.623 262.658 194.478 265.581 194.216 268.484C191.95 293.331 180.227 316.359 161.469 332.81C142.71 349.26 118.349 357.877 93.419 356.88C68.4888 355.883 44.8941 345.348 27.5095 327.451C10.1248 309.555 0.278549 285.665 0.00485566 260.716C0.00485566 260.386 0.00485566 260.065 0.00485566 259.745C-0.123621 246.884 2.2986 234.125 7.13148 222.205C11.9644 210.286 19.112 199.443 28.1612 190.302C37.2105 181.162 47.9817 173.907 59.8522 168.955C71.7227 164.003 84.4571 161.454 97.319 161.454C110.181 161.454 122.915 164.003 134.786 168.955C146.656 173.907 157.428 181.162 166.477 190.302C175.526 199.443 182.674 210.286 187.507 222.205C192.339 234.125 194.762 246.884 194.633 259.745L194.623 259.687Z" fill="#6544E5"/>
<path d="M194.623 259.687C194.623 262.658 194.478 265.581 194.216 268.485C171.823 283.721 138.866 293.334 102.111 293.334C59.3848 293.334 21.8439 280.351 0.00485566 260.668C0.00485566 260.338 0.00485566 260.017 0.00485566 259.697C-0.123621 246.835 2.2986 234.076 7.13148 222.157C11.9644 210.237 19.112 199.394 28.1612 190.254C37.2105 181.114 47.9817 173.858 59.8522 168.907C71.7227 163.955 84.4571 161.406 97.319 161.406C110.181 161.406 122.915 163.955 134.786 168.907C146.656 173.858 157.428 181.114 166.477 190.254C175.526 199.394 182.674 210.237 187.507 222.157C192.339 234.076 194.762 246.835 194.633 259.697L194.623 259.687Z" fill="url(#paint1_linear_14_464)"/>
<path d="M141.934 221.641C145.818 223.039 150.042 224.039 153.227 226.69C156.053 229.03 157.772 232.419 159.16 235.808C163.79 247.182 165.461 259.543 164.016 271.737C163.627 274.981 163.045 278.321 163.89 281.448C164.734 284.575 167.618 287.507 170.862 287.119C175.358 278.185 175.455 267.756 175.464 257.754C175.464 250.452 175.464 242.994 173.017 236.109C171.017 230.438 167.482 225.428 163.831 220.66C150.518 203.181 134.408 186.877 113.9 179.021C113.049 178.586 112.072 178.466 111.142 178.681C106.918 180.225 107.607 187.741 109.248 190.761C111.579 194.933 114.173 198.952 117.017 202.793C123.254 211.422 131.933 217.987 141.934 221.641Z" fill="url(#paint2_linear_14_464)"/>
<path d="M103.529 199.695C103.587 198.388 103.756 197.089 104.034 195.811C104.183 195.177 104.504 194.596 104.961 194.132C105.419 193.668 105.995 193.338 106.627 193.179C107.16 193.165 107.692 193.116 108.219 193.033C109.297 192.703 109.753 191.451 110.064 190.373L113.511 178.332C114.172 176.001 114.842 173.554 114.337 171.194C113.54 167.504 110.151 165.009 106.85 163.203C104.451 161.882 101.752 160.707 99.0815 161.202C94.9448 161.969 92.5463 166.242 91.0023 170.155C89.2054 174.349 88.1003 178.805 87.7299 183.352C87.458 188.605 87.0113 201.472 90.2643 206.065C94.77 212.513 102.81 205.521 103.529 199.695Z" fill="url(#paint3_linear_14_464)"/>
<path d="M155.907 184.498C164.715 187.479 174.105 188.732 182.592 192.528C182.865 192.611 183.119 192.75 183.336 192.935C183.553 193.121 183.73 193.349 183.854 193.606C183.929 194.027 183.874 194.46 183.699 194.849C176.532 216.165 172.489 238.406 171.697 260.881C176.775 261.795 181.965 261.909 187.078 261.221C187.653 261.185 188.21 261.008 188.7 260.706C189.171 260.293 189.526 259.764 189.729 259.172C197.944 240.728 205.318 221.938 211.85 202.802C213.005 199.413 214.151 195.869 213.685 192.315C213.015 187.139 209.121 183.061 205.421 179.38L176.591 150.618C175.858 149.791 174.957 149.129 173.95 148.676C172.79 148.331 171.564 148.271 170.376 148.501C159.005 149.909 143.478 150.346 122.581 149.472C119.872 149.355 133.262 164.785 134.379 167.747C135.273 170.097 138.098 173.127 139.827 174.952C144.158 179.497 150.003 182.497 155.907 184.498Z" fill="#525263"/>
<path d="M155.907 184.498C164.715 187.479 174.105 188.732 182.592 192.528C182.865 192.611 183.119 192.75 183.336 192.935C183.553 193.121 183.73 193.349 183.854 193.606C183.929 194.027 183.874 194.46 183.699 194.849C176.532 216.165 172.489 238.406 171.697 260.881C176.775 261.795 181.965 261.909 187.078 261.221C187.653 261.185 188.21 261.008 188.7 260.706C189.171 260.293 189.526 259.764 189.729 259.172C197.944 240.728 205.318 221.938 211.85 202.802C213.005 199.413 214.151 195.869 213.685 192.315C213.015 187.139 209.121 183.061 205.421 179.38L176.591 150.618C175.858 149.791 174.957 149.129 173.95 148.676C172.79 148.331 171.564 148.271 170.376 148.501C159.005 149.909 143.478 150.346 122.581 149.472C119.872 149.355 133.262 164.785 134.379 167.747C135.273 170.097 138.098 173.127 139.827 174.952C144.158 179.497 150.003 182.497 155.907 184.498Z" fill="url(#paint4_linear_14_464)"/>
<path d="M170.221 273.631C169.513 274.732 169.035 275.964 168.813 277.253C168.295 279.51 167.912 281.796 167.667 284.099C167.473 285.886 167.405 287.828 168.424 289.294C169.444 290.76 171.124 291.295 172.697 291.906C176.657 293.536 180.505 295.427 184.214 297.568C186.719 298.946 189.331 300.374 192.186 300.481C195.041 300.588 198.197 299.024 198.848 296.247C199.073 294.91 198.959 293.538 198.517 292.256C196.959 286.684 193.902 281.646 189.681 277.69C188.941 276.968 188.116 276.339 187.224 275.816C186.368 275.374 185.475 275.01 184.554 274.728C181.96 273.78 179.303 273.017 176.601 272.446C174.241 272.068 171.852 271.369 170.221 273.631Z" fill="#2E2E3F"/>
<path d="M170.221 273.631C169.513 274.732 169.035 275.964 168.813 277.253C168.295 279.51 167.912 281.796 167.667 284.099C167.473 285.886 167.405 287.828 168.424 289.294C169.444 290.76 171.124 291.295 172.697 291.906C176.657 293.536 180.505 295.427 184.214 297.568C186.719 298.946 189.331 300.374 192.186 300.481C195.041 300.588 198.197 299.024 198.848 296.247C199.073 294.91 198.959 293.538 198.517 292.256C196.959 286.684 193.902 281.646 189.681 277.69C188.941 276.968 188.116 276.339 187.224 275.816C186.368 275.374 185.475 275.01 184.554 274.728C181.96 273.78 179.303 273.017 176.601 272.446C174.241 272.068 171.852 271.369 170.221 273.631Z" fill="url(#paint5_linear_14_464)"/>
<path d="M173.105 261.61C172.369 265.451 171.985 269.351 171.959 273.262C171.959 274.981 172.076 276.884 173.309 278.117C174.476 279.045 175.964 279.471 177.446 279.302C179.232 279.236 180.994 278.872 182.66 278.224C183.03 278.109 183.364 277.902 183.631 277.622C183.828 277.347 183.964 277.032 184.029 276.7C185.511 271.141 186.297 265.42 186.37 259.667C186.464 258.766 186.277 257.857 185.835 257.065C184.913 255.773 183 255.832 181.446 256.143C179.457 256.568 177.508 257.163 175.62 257.92C173.833 258.541 173.464 259.765 173.105 261.61Z" fill="#F5BCBA"/>
<path d="M192.254 279.865C192.956 281.59 193.527 283.366 193.963 285.177C194.264 286.585 194.439 288.09 195.342 289.216C196.488 290.624 198.479 290.984 200.294 291.013C201.791 291.098 203.288 290.845 204.674 290.275C205.395 289.992 205.998 289.471 206.383 288.799C206.653 288.135 206.747 287.412 206.655 286.701C206.513 281.768 205.283 276.927 203.052 272.524C201.773 270.248 200.332 268.068 198.741 265.999C198.238 265.068 197.391 264.371 196.381 264.056C195.862 264.038 195.344 264.124 194.859 264.309C194.374 264.494 193.93 264.775 193.555 265.134C191.953 266.338 188.428 268.348 188.797 270.63C189.263 273.67 191.167 276.981 192.254 279.865Z" fill="#F5BCBA"/>
<path d="M204.023 283.448C202.924 284.063 201.858 284.734 200.828 285.458C199.226 286.342 197.342 286.517 195.585 287.022C195.121 287.111 194.694 287.337 194.361 287.672C194.119 287.999 193.968 288.385 193.924 288.789C193.594 291.44 193.702 294.127 194.245 296.742C195.138 302.4 196.18 308.035 197.371 313.648C197.867 315.959 198.459 318.397 200.139 320.057C201.819 321.718 204.373 322.29 206.762 322.358C208.996 322.487 211.229 322.07 213.268 321.145C214.889 320.277 216.293 319.054 217.376 317.568C218.459 316.081 219.192 314.37 219.521 312.561C220.154 308.923 219.708 305.179 218.239 301.792C217.242 299.475 216.08 297.232 214.763 295.082C213.015 292.078 211.274 289.074 209.539 286.07C208.218 283.778 207.014 282.176 204.023 283.448Z" fill="#2E2E3F"/>
<path d="M204.023 283.448C202.924 284.063 201.858 284.734 200.828 285.458C199.226 286.342 197.342 286.517 195.585 287.022C195.121 287.111 194.694 287.337 194.361 287.672C194.119 287.999 193.968 288.385 193.924 288.789C193.594 291.44 193.702 294.127 194.245 296.742C195.138 302.4 196.18 308.035 197.371 313.648C197.867 315.959 198.459 318.397 200.139 320.057C201.819 321.718 204.373 322.29 206.762 322.358C208.996 322.487 211.229 322.07 213.268 321.145C214.889 320.277 216.293 319.054 217.376 317.568C218.459 316.081 219.192 314.37 219.521 312.561C220.154 308.923 219.708 305.179 218.239 301.792C217.242 299.475 216.08 297.232 214.763 295.082C213.015 292.078 211.274 289.074 209.539 286.07C208.218 283.778 207.014 282.176 204.023 283.448Z" fill="url(#paint6_linear_14_464)"/>
<path d="M86.3704 105.707C85.5208 107.845 84.9528 110.084 84.6808 112.368C83.7571 118.283 83.167 124.245 82.9135 130.226C82.428 141.645 83.166 153.084 82.8455 164.504C82.5154 176.38 81.117 188.693 85.3897 199.773C86.055 201.783 87.1787 203.612 88.6718 205.113C89.4275 205.852 90.359 206.386 91.3785 206.665C92.398 206.944 93.4717 206.958 94.4982 206.706C95.427 206.348 96.2607 205.781 96.9344 205.048C97.6081 204.316 98.1037 203.437 98.3824 202.482C98.9177 200.568 99.1535 198.583 99.0815 196.597L99.2369 185.741C99.2369 185.518 99.2369 185.255 99.4603 185.158C99.5538 185.126 99.6542 185.119 99.7513 185.137C99.8485 185.156 99.939 185.2 100.014 185.265C100.849 185.987 101.644 186.755 102.393 187.567C103.257 188.266 104.636 188.606 105.403 187.8C105.615 187.517 105.766 187.193 105.845 186.848C105.923 186.503 105.928 186.146 105.859 185.799C105.393 181.099 101.296 177.71 98.8582 173.661C95.343 167.835 95.343 160.494 96.2266 153.716C97.3239 145.229 99.6156 136.945 101.898 128.692L103.84 121.71C105.306 116.408 106.753 110.62 104.617 105.542C103.759 103.591 102.452 101.871 100.804 100.521C99.1551 99.1707 97.2108 98.2293 95.1293 97.7732C91.0703 97.0255 87.8367 102.405 86.3704 105.707Z" fill="#F5BCBA"/>
<path d="M176.523 149.861C175.27 153.23 168.201 149.297 164.161 151.317C156.451 155.201 147.653 151.21 139.06 151.317C129.912 151.482 123.6 160.494 114.521 161.64C113.861 161.776 113.181 161.776 112.521 161.64C111.268 161.271 110.53 160.018 109.996 158.843C109.212 157.03 108.652 155.129 108.326 153.182C107.199 146.734 108.326 139.82 109.53 133.265C110.54 127.711 111.546 122.153 112.55 116.592C113.715 110.119 114.89 103.606 116.075 97.0548C116.766 92.7328 117.739 88.4608 118.988 84.266C119.221 83.5377 119.464 82.8288 119.726 82.1297C121.985 76.4349 124.71 70.9362 127.873 65.6897C129.815 62.3202 131.757 58.8923 134.758 56.3385C138.108 53.5127 142.429 52.1047 146.77 51.4249C150.673 50.6892 154.698 50.9226 158.49 52.1047C160.656 52.8621 161.472 55.1538 163.19 56.5618C165.369 58.176 167.313 60.0845 168.968 62.2328C170.649 64.8265 171.849 67.7012 172.512 70.7198C178.601 94.3941 169.793 119.933 175.581 143.675C176.241 146.462 177.523 147.2 176.523 149.861Z" fill="#6544E5"/>
<path d="M168.25 66.6995L169.007 71.6616L166.094 70.0399V83.188L162.773 68.5833L165.987 63.9028L168.25 66.6995Z" fill="url(#paint7_linear_14_464)"/>
<path d="M143.585 66.3789L145.42 67.3499L148.333 69.8844L140.565 90.7232C140.565 90.7232 151.848 73.3608 152.217 64.5047C152.446 59.0573 151.767 53.6098 150.207 48.3853L143.585 66.3789Z" fill="url(#paint8_linear_14_464)"/>
<path d="M118.706 126.109C118.09 130.879 118.09 135.709 118.706 140.48C119.105 143.481 119.745 146.472 119.542 149.482C119.551 150.07 119.363 150.644 119.007 151.113C118.551 151.484 117.992 151.705 117.405 151.744C114.369 152.223 111.33 152.712 108.287 153.211C107.161 146.763 108.287 139.849 109.491 133.294C110.501 127.74 111.508 122.182 112.511 116.621C113.676 110.148 114.851 103.635 116.036 97.0837C116.727 92.7618 117.7 88.4897 118.949 84.295C119.182 83.5667 119.425 82.8578 119.687 82.1586C122.697 80.4884 126.883 79.2455 128.747 81.945C130.689 84.8582 128.135 91.6555 127.378 94.5687C124.62 105.124 120.095 115.213 118.706 126.109Z" fill="url(#paint9_linear_14_464)"/>
<path d="M188.554 41.9182C188.655 43.1258 188.619 44.3408 188.448 45.5403C188.349 46.1383 188.051 46.6851 187.601 47.091C187.151 47.4969 186.576 47.7376 185.971 47.7737C182.942 47.5504 180.757 50.4538 178.349 52.3182C176.459 53.734 174.216 54.6017 171.866 54.8262C169.516 55.0506 167.149 54.623 165.026 53.5903C164.604 53.4386 164.14 53.4548 163.73 53.6355C163.319 53.8163 162.994 54.1477 162.821 54.5614C162.519 55.418 162.451 56.3403 162.627 57.2318L163.744 67.8551C163.958 69.904 163.977 72.4093 162.239 73.5163C160.501 74.6233 158.442 73.662 157.005 72.4093C154.746 70.2367 153.112 67.4965 152.276 64.4758C150.377 58.3557 150.105 51.8467 151.485 45.5893C152.866 39.332 155.853 33.5421 160.151 28.7896C161.765 26.9859 163.656 25.4517 165.754 24.2451C167.95 23.1053 170.308 22.3095 172.746 21.8854C174.927 21.3705 177.182 21.2456 179.407 21.5164C182.395 22.0596 185.112 23.596 187.117 25.8764C188.593 27.4884 190.03 32.2951 191.584 33.0817C190.429 36.0142 188.603 38.607 188.554 41.9182Z" fill="#F5BCBA"/>
<path d="M165.443 0.221286C164.019 -0.111746 162.534 -0.0682395 161.132 0.347522C158.393 1.31858 156.859 4.18318 155.869 6.91185C154.878 9.64051 154.062 12.6216 151.907 14.554C150.052 16.2243 147.42 16.8943 145.75 18.7393C143.808 20.8853 143.624 24.0607 143.808 26.9447C143.808 29.1084 144.417 31.2285 145.566 33.0623C146.595 34.4606 148.178 35.4317 148.984 36.9465C149.897 38.6847 150.207 41.3745 152.169 41.4911C152.987 41.4497 153.759 41.1033 154.334 40.52C156.317 38.8062 157.811 36.5985 158.665 34.1208C159.141 32.7419 159.452 31.2076 160.501 30.2366C161.549 29.2655 163.686 29.2072 164.161 30.5861C164.295 31.4634 164.16 32.3607 163.773 33.1594C163.521 34.014 163.627 35.1695 164.462 35.4608C166.036 33.0332 166.919 30.1783 168.784 27.974C169.842 26.7343 171.169 25.7531 172.665 25.1056C174.16 24.4581 175.784 24.1614 177.412 24.2383C179.04 24.3151 180.629 24.7635 182.057 25.549C183.485 26.3345 184.714 27.4364 185.651 28.7703C186.622 30.1589 187.282 31.8097 188.642 32.8001C189.922 33.5804 191.386 34.0092 192.885 34.0431C196.226 34.3732 199.76 34.4995 202.771 33.0138C205.781 31.5281 208.005 27.9254 206.849 24.7695C205.936 22.2933 203.334 20.8853 200.809 20.089C198.284 19.2928 195.585 18.8946 193.361 17.4769C190.341 15.5348 188.729 12.0779 186.972 8.94135C185.214 5.80485 182.835 2.58095 179.32 1.84295C177.885 1.6196 176.424 1.6196 174.989 1.84295C173.588 2.13999 172.155 2.251 170.726 2.1731C168.978 1.81381 167.288 0.629128 165.443 0.221286Z" fill="#2E2E3F"/>
<path d="M165.443 80.0126C167.661 91.2462 168.315 102.732 167.385 114.145C166.618 123.642 164.793 133.071 164.861 142.597C165.003 145.276 164.922 147.962 164.618 150.628C164.191 153.269 146.479 152.259 143.896 152.23C139.545 152.172 145.061 158.056 141.788 155.221C136.652 150.744 134.36 143.762 133.729 136.984C132.826 127.322 134.807 117.651 136.962 108.183C138.458 101.628 140.05 95.0542 142.73 88.888C146.051 81.2652 151.305 71.5644 152.994 63.4173C153.237 62.2229 149.11 57.8823 150.887 57.9405C152.043 57.9405 151.499 59.737 151.703 60.6303C152.067 61.9907 152.765 63.2389 153.732 64.2621C155.087 65.8436 156.922 66.9384 158.957 67.3792C160.268 67.6219 161.763 67.5637 162.715 68.4959C163.87 69.6223 163.686 71.8169 164.016 73.3511C164.492 75.5457 164.997 77.7694 165.443 80.0126Z" fill="#F2F2F2"/>
<path d="M126.125 51.1237C121.425 53.2795 117.386 56.6199 113.57 60.1157C110.411 62.9621 107.427 65.9974 104.636 69.2048C102.169 72.1179 99.9165 75.1379 97.3141 77.886C93.7212 81.6634 89.2349 85.3145 88.5261 90.5097C88.3091 93.2187 88.7836 95.9385 89.905 98.4141C90.8291 100.942 92.1935 103.286 93.9349 105.338C96.1445 107.782 99.0595 109.479 102.276 110.193C103.284 110.456 104.337 110.502 105.364 110.329C106.811 109.917 108.141 109.172 109.248 108.154C111.78 106.238 114.177 104.152 116.424 101.91C118.716 99.5308 120.658 96.8215 122.892 94.3842C124.834 92.2867 126.902 90.3932 128.844 88.3345C131.165 85.868 133.233 83.1782 135.302 80.4884C138.228 76.84 140.911 73.0025 143.332 69.0008C145.355 65.4693 146.961 61.7155 148.12 57.8143C148.867 55.2701 150.062 52.0462 147.479 50.2109C141.992 46.3462 131.592 48.5699 126.125 51.1237Z" fill="#6544E5"/>
<path d="M126.125 51.1237C121.425 53.2795 117.386 56.6199 113.57 60.1157C110.411 62.9621 107.427 65.9974 104.636 69.2048C102.169 72.1179 99.9165 75.1379 97.3141 77.886C93.7212 81.6634 89.2349 85.3145 88.5261 90.5097C88.3091 93.2187 88.7836 95.9385 89.905 98.4141C90.8291 100.942 92.1935 103.286 93.9349 105.338C96.1445 107.782 99.0595 109.479 102.276 110.193C103.284 110.456 104.337 110.502 105.364 110.329C106.811 109.917 108.141 109.172 109.248 108.154C111.78 106.238 114.177 104.152 116.424 101.91C118.716 99.5308 120.658 96.8215 122.892 94.3842C124.834 92.2867 126.902 90.3932 128.844 88.3345C131.165 85.868 133.233 83.1782 135.302 80.4884C138.228 76.84 140.911 73.0025 143.332 69.0008C145.355 65.4693 146.961 61.7155 148.12 57.8143C148.867 55.2701 150.062 52.0462 147.479 50.2109C141.992 46.3462 131.592 48.5699 126.125 51.1237Z" fill="#6544E5"/>
<path d="M207.529 95.462C206.479 96.1253 205.728 97.1715 205.436 98.3787C205.144 99.586 205.334 100.86 205.965 101.929C207.596 104.765 209.782 107.242 212.394 109.212C213.947 110.882 217.443 111.154 220.551 109.329C223.658 107.503 238.486 99.4336 245.895 94.1608C246.439 93.7872 246.9 93.3067 247.252 92.7488C247.604 92.1908 247.838 91.567 247.941 90.9155C248.044 90.264 248.012 89.5984 247.849 88.9593C247.686 88.3202 247.395 87.721 246.992 87.1983L240.787 79.4299C240.052 78.5105 239.003 77.895 237.842 77.7015C236.681 77.5079 235.489 77.75 234.495 78.3812L207.529 95.462Z" fill="#3D3D54"/>
<path d="M108.976 179.157C110.072 183.18 112.015 186.921 114.677 190.13C117.59 193.529 121.552 195.956 125.358 198.268L141.39 208.027C143.741 209.379 145.99 210.901 148.12 212.581C153.373 216.912 156.859 222.952 160.248 228.856L183.631 269.611C184.816 271.699 186.476 274.058 188.875 273.981C190.166 273.813 191.381 273.273 192.371 272.427C195.371 270.32 198.595 267.921 199.488 264.357C200.11 261.872 199.488 259.259 198.741 256.793C195.148 244.645 189.516 233.206 183.864 221.835C174.885 203.838 165.773 185.877 156.529 167.951C154.072 163.193 151.091 155.784 147.032 152.288C147.032 152.288 109.316 149.996 108.365 153.735C106.245 162.106 106.457 170.898 108.976 179.157Z" fill="#525263"/>
<path d="M108.976 179.157C110.072 183.18 112.015 186.921 114.677 190.13C117.59 193.529 121.552 195.956 125.358 198.268L141.39 208.027C143.741 209.379 145.99 210.901 148.12 212.581C153.373 216.912 156.859 222.952 160.248 228.856L183.631 269.611C184.816 271.699 186.476 274.058 188.875 273.981C190.166 273.813 191.381 273.273 192.371 272.427C195.371 270.32 198.595 267.921 199.488 264.357C200.11 261.872 199.488 259.259 198.741 256.793C195.148 244.645 189.516 233.206 183.864 221.835C174.885 203.838 165.773 185.877 156.529 167.951C154.072 163.193 151.091 155.784 147.032 152.288C147.032 152.288 109.316 149.996 108.365 153.735C106.245 162.106 106.457 170.898 108.976 179.157Z" fill="url(#paint10_linear_14_464)"/>
<path d="M151.392 45.8022L146.061 47.9094L142.827 66.0002L153.577 65.5146L151.392 45.8022Z" fill="#6544E5"/>
<path d="M162.676 65.078C162.676 65.8937 162.676 66.7093 162.676 67.525C162.676 67.8786 162.695 68.232 162.734 68.5835C162.792 68.9403 162.87 69.2937 162.967 69.6419L164.307 74.9244L164.861 66.3403C166.444 67.1075 168.065 67.8066 169.716 68.4184C169.591 67.1319 169.264 65.8733 168.745 64.6895C167.774 62.2036 166.881 59.708 165.832 57.2707C165.587 56.6197 165.232 56.0154 164.783 55.4839C164.557 55.2204 164.272 55.0131 163.952 54.8783C163.632 54.7435 163.285 54.6849 162.938 54.7071C161.967 55.115 162.579 58.7564 162.588 59.5624L162.676 65.078Z" fill="#6544E5"/>
<path d="M241.234 91.2088L221.502 103.687C221.156 103.873 220.757 103.937 220.371 103.866C219.984 103.795 219.633 103.595 219.375 103.298L213.102 96.2291C212.973 96.1087 212.874 95.9606 212.81 95.7959C212.747 95.6313 212.722 95.4544 212.737 95.2786C212.752 95.1028 212.806 94.9327 212.897 94.7811C212.987 94.6295 213.11 94.5004 213.258 94.4035L233.028 81.9352C233.374 81.7485 233.773 81.6853 234.16 81.7559C234.547 81.8265 234.898 82.0268 235.155 82.3236L241.428 89.3832C241.555 89.5063 241.653 89.6567 241.713 89.8231C241.773 89.9895 241.795 90.1674 241.776 90.3433C241.757 90.5192 241.699 90.6886 241.605 90.8386C241.511 90.9885 241.384 91.1151 241.234 91.2088Z" fill="#6544E5"/>
<defs>
<linearGradient id="paint0_linear_14_464" x1="153.441" y1="98.2585" x2="193.293" y2="97.6468" gradientUnits="userSpaceOnUse">
<stop offset="0.01"/>
<stop offset="0.13" stop-opacity="0.69"/>
<stop offset="1" stop-opacity="0"/>
</linearGradient>
<linearGradient id="paint1_linear_14_464" x1="274.269" y1="59.4945" x2="-28.9423" y2="376.204" gradientUnits="userSpaceOnUse">
<stop offset="0.01"/>
<stop offset="0.13" stop-opacity="0.69"/>
<stop offset="1" stop-opacity="0"/>
</linearGradient>
<linearGradient id="paint2_linear_14_464" x1="193.225" y1="178.108" x2="106.19" y2="269.028" gradientUnits="userSpaceOnUse">
<stop offset="0.01"/>
<stop offset="0.13" stop-opacity="0.69"/>
<stop offset="1" stop-opacity="0"/>
</linearGradient>
<linearGradient id="paint3_linear_14_464" x1="66.3764" y1="164.815" x2="184" y2="238.488" gradientUnits="userSpaceOnUse">
<stop offset="0.01"/>
<stop offset="0.13" stop-opacity="0.69"/>
<stop offset="1" stop-opacity="0"/>
</linearGradient>
<linearGradient id="paint4_linear_14_464" x1="122.222" y1="204.977" x2="213.792" y2="204.977" gradientUnits="userSpaceOnUse">
<stop offset="0.01"/>
<stop offset="0.13" stop-opacity="0.69"/>
<stop offset="1" stop-opacity="0"/>
</linearGradient>
<linearGradient id="paint5_linear_14_464" x1="204.616" y1="291.77" x2="179.417" y2="285.303" gradientUnits="userSpaceOnUse">
<stop offset="0.01"/>
<stop offset="0.13" stop-opacity="0.69"/>
<stop offset="1" stop-opacity="0"/>
</linearGradient>
<linearGradient id="paint6_linear_14_464" x1="193.73" y1="302.685" x2="219.851" y2="302.685" gradientUnits="userSpaceOnUse">
<stop offset="0.01"/>
<stop offset="0.13" stop-opacity="0.69"/>
<stop offset="1" stop-opacity="0"/>
</linearGradient>
<linearGradient id="paint7_linear_14_464" x1="151.227" y1="61.213" x2="178.154" y2="83.6152" gradientUnits="userSpaceOnUse">
<stop offset="0.01"/>
<stop offset="0.13" stop-opacity="0.69"/>
<stop offset="1" stop-opacity="0"/>
</linearGradient>
<linearGradient id="paint8_linear_14_464" x1="168.958" y1="60.2321" x2="119.192" y2="79.9445" gradientUnits="userSpaceOnUse">
<stop offset="0.01"/>
<stop offset="0.13" stop-opacity="0.69"/>
<stop offset="1" stop-opacity="0"/>
</linearGradient>
<linearGradient id="paint9_linear_14_464" x1="85.0109" y1="117.893" x2="146.673" y2="115.757" gradientUnits="userSpaceOnUse">
<stop offset="0.01"/>
<stop offset="0.13" stop-opacity="0.69"/>
<stop offset="1" stop-opacity="0"/>
</linearGradient>
<linearGradient id="paint10_linear_14_464" x1="136.535" y1="218.873" x2="205.693" y2="189.79" gradientUnits="userSpaceOnUse">
<stop offset="0.01"/>
<stop offset="0.13" stop-opacity="0.69"/>
<stop offset="1" stop-opacity="0"/>
</linearGradient>
</defs>
</svg>
