<svg width="157" height="54" viewBox="0 0 157 54" fill="none" xmlns="http://www.w3.org/2000/svg">
<path d="M35.6 42V19.48H39.68V30.12L49.64 19.48H54.96V19.96L46.04 28.56L55.44 41.52V42H50.76L43.08 31.4L39.68 34.68V42H35.6ZM63.245 42.4C60.9783 42.4 59.365 41.6267 58.405 40.08C57.445 38.5333 56.965 36.5067 56.965 34C56.965 31.4667 57.445 29.4267 58.405 27.88C59.3917 26.3067 61.005 25.52 63.245 25.52C64.525 25.52 65.5383 25.7467 66.285 26.2C67.0317 26.6267 67.5917 27.1067 67.965 27.64C68.3383 28.1733 68.565 28.5733 68.645 28.84H68.725V25.56H72.925V42H69.405L68.725 39.32H68.645C68.565 39.56 68.325 39.9333 67.925 40.44C67.5517 40.92 66.9783 41.3733 66.205 41.8C65.4583 42.2 64.4717 42.4 63.245 42.4ZM64.925 38.96C66.4183 38.96 67.4183 38.4933 67.925 37.56C68.4583 36.6 68.725 35.4267 68.725 34.04C68.725 32.5733 68.4583 31.3867 67.925 30.48C67.3917 29.5733 66.3917 29.12 64.925 29.12C63.885 29.12 63.0717 29.3467 62.485 29.8C61.925 30.2533 61.525 30.8533 61.285 31.6C61.0717 32.32 60.965 33.1333 60.965 34.04C60.965 34.9467 61.0717 35.7733 61.285 36.52C61.525 37.2667 61.925 37.8667 62.485 38.32C63.0717 38.7467 63.885 38.96 64.925 38.96ZM76.17 42V19.48H80.17V42H76.17ZM93.7816 42.4C92.7682 42.4 91.9149 42.2533 91.2216 41.96C90.5549 41.64 90.0082 41.2667 89.5816 40.84C89.1816 40.4133 88.8749 40.0267 88.6616 39.68C88.4749 39.3333 88.3682 39.1333 88.3416 39.08H88.2616V49.32H84.0616V25.56H87.6216L88.3016 29.16H88.3816C88.4082 29.08 88.5016 28.8533 88.6616 28.48C88.8482 28.1067 89.1282 27.6933 89.5016 27.24C89.9016 26.7867 90.4482 26.4 91.1416 26.08C91.8349 25.7333 92.7016 25.56 93.7416 25.56C96.1949 25.56 97.9549 26.3467 99.0216 27.92C100.088 29.4933 100.622 31.5467 100.622 34.08C100.622 36.6133 100.075 38.64 98.9816 40.16C97.8882 41.6533 96.1549 42.4 93.7816 42.4ZM92.5416 38.96C93.6616 38.96 94.5149 38.7333 95.1016 38.28C95.7149 37.8 96.1282 37.1867 96.3416 36.44C96.5816 35.6667 96.7016 34.8667 96.7016 34.04C96.7016 33.2133 96.5682 32.44 96.3016 31.72C96.0616 30.9733 95.6349 30.3733 95.0216 29.92C94.4082 29.44 93.5549 29.2 92.4616 29.2C90.9682 29.2 89.9016 29.6667 89.2616 30.6C88.6216 31.5067 88.3016 32.6533 88.3016 34.04C88.3016 35.48 88.6349 36.6667 89.3016 37.6C89.9682 38.5067 91.0482 38.96 92.5416 38.96ZM110.949 42.4C109.056 42.4 107.509 42 106.309 41.2C105.136 40.3733 104.256 39.3333 103.669 38.08C103.109 36.8 102.816 35.4533 102.789 34.04C102.762 32.3867 103.069 30.92 103.709 29.64C104.376 28.3333 105.309 27.32 106.509 26.6C107.736 25.8533 109.176 25.48 110.829 25.48C112.296 25.48 113.602 25.8 114.749 26.44C115.922 27.08 116.856 27.9867 117.549 29.16C118.242 30.3067 118.602 31.6667 118.629 33.24C118.629 33.2933 118.629 33.44 118.629 33.68C118.629 33.92 118.629 34.12 118.629 34.28H106.669C106.669 35.8 107.042 36.9733 107.789 37.8C108.536 38.6 109.562 39 110.869 39C111.882 39 112.722 38.7467 113.389 38.24C114.082 37.7333 114.496 37.0667 114.629 36.24H118.589C118.402 37.9733 117.656 39.44 116.349 40.64C115.042 41.8133 113.242 42.4 110.949 42.4ZM106.789 32.44H114.549C114.522 32.2533 114.456 31.96 114.349 31.56C114.269 31.16 114.096 30.7467 113.829 30.32C113.589 29.8933 113.216 29.5333 112.709 29.24C112.202 28.9467 111.549 28.8 110.749 28.8C109.682 28.8 108.869 29.0267 108.309 29.48C107.776 29.9067 107.389 30.4133 107.149 31C106.936 31.56 106.816 32.04 106.789 32.44ZM128.666 42.4C127.972 42.4 127.199 42.28 126.346 42.04C125.519 41.8 124.719 41.44 123.946 40.96C123.199 40.48 122.572 39.8667 122.066 39.12C121.586 38.3467 121.346 37.44 121.346 36.4H125.106C125.106 36.4533 125.119 36.64 125.146 36.96C125.172 37.2533 125.279 37.6 125.466 38C125.679 38.3733 126.026 38.7067 126.506 39C126.986 39.2933 127.679 39.44 128.586 39.44C129.652 39.44 130.452 39.2533 130.986 38.88C131.519 38.48 131.786 38.0267 131.786 37.52C131.786 36.9333 131.532 36.48 131.026 36.16C130.546 35.8133 129.919 35.5333 129.146 35.32C128.372 35.1067 127.546 34.8933 126.666 34.68C125.812 34.44 124.999 34.1333 124.226 33.76C123.479 33.3867 122.866 32.88 122.386 32.24C121.906 31.5733 121.666 30.72 121.666 29.68C121.666 28.16 122.279 27.0133 123.506 26.24C124.732 25.44 126.292 25.04 128.186 25.04C129.519 25.04 130.759 25.2533 131.906 25.68C133.052 26.08 133.972 26.7333 134.666 27.64C135.359 28.52 135.706 29.68 135.706 31.12H131.946C131.972 30.2933 131.786 29.68 131.386 29.28C131.012 28.8533 130.532 28.56 129.946 28.4C129.386 28.24 128.839 28.16 128.306 28.16C127.346 28.16 126.612 28.3333 126.106 28.68C125.626 29 125.386 29.4267 125.386 29.96C125.386 30.5733 125.626 31.0533 126.106 31.4C126.612 31.72 127.252 31.9867 128.026 32.2C128.826 32.4133 129.652 32.64 130.506 32.88C131.386 33.0933 132.212 33.3867 132.986 33.76C133.786 34.1333 134.426 34.64 134.906 35.28C135.412 35.8933 135.666 36.72 135.666 37.76C135.666 39.3333 135.012 40.5067 133.706 41.28C132.426 42.0267 130.746 42.4 128.666 42.4ZM138.587 42V19.48H142.787V29.12H142.867C142.894 29.04 142.987 28.8267 143.147 28.48C143.334 28.1067 143.614 27.6933 143.987 27.24C144.387 26.7867 144.921 26.4 145.587 26.08C146.281 25.7333 147.147 25.56 148.187 25.56C149.627 25.56 150.761 25.8667 151.587 26.48C152.414 27.0667 153.014 27.8133 153.387 28.72C153.761 29.6267 153.987 30.56 154.067 31.52C154.174 32.48 154.227 33.32 154.227 34.04V42H150.267V34C150.267 33.12 150.174 32.32 149.987 31.6C149.827 30.8533 149.494 30.2667 148.987 29.84C148.481 29.3867 147.707 29.16 146.667 29.16C145.627 29.16 144.827 29.4 144.267 29.88C143.707 30.36 143.321 30.9867 143.107 31.76C142.894 32.5067 142.787 33.3067 142.787 34.16V42H138.587Z" fill="black"/>
<path fill-rule="evenodd" clip-rule="evenodd" d="M17.6814 15L16.213 27.074L25.8185 19.7432L29 25.2874L17.8654 30.0308L29 34.7742L25.8185 40.2568L16.213 32.9876L17.6814 45H11.3186L12.787 32.9876L3.18146 40.2568L0 34.7742L11.0734 30.0308L0 25.2874L3.18146 19.7432L12.787 27.074L11.3186 15H17.6814Z" fill="#5B38E3"/>
</svg>
