<svg width="491" height="423" viewBox="0 0 491 423" fill="none" xmlns="http://www.w3.org/2000/svg">
<path d="M412.757 308.582C412.757 308.582 471.949 154.435 441.284 130.927C410.618 107.419 282.007 116.912 274.961 125.311C267.915 133.709 226.429 319.259 226.429 319.259L412.757 308.582Z" fill="#231F20"/>
<path d="M226.339 320.193C226.21 320.191 226.083 320.164 225.965 320.111C225.848 320.059 225.742 319.982 225.656 319.887C225.566 319.783 225.503 319.658 225.472 319.523C225.44 319.389 225.442 319.249 225.476 319.116C227.166 311.525 267.16 133.242 274.278 124.772C278.179 120.124 312.511 115.8 349.252 115.315C370.822 115.028 423.111 115.907 441.841 130.245C454.873 140.223 454.046 173.313 439.396 228.799C428.611 269.839 413.746 308.51 413.602 308.887C413.542 309.05 413.435 309.192 413.294 309.294C413.153 309.396 412.985 309.454 412.811 309.461L226.393 320.228L226.339 320.193ZM356.046 117.056H349.288C311.54 117.558 278.736 122.206 275.59 125.885C270.198 132.363 241.869 253.886 227.417 318.308L412.074 307.685C415.867 297.654 469.594 153.753 440.691 131.627C428.521 122.314 397.838 117.056 356.046 117.056Z" fill="#231F20"/>
<path d="M172.414 175.395L145.739 264.779C145.739 264.779 200.76 271.867 200.76 269.839C200.76 267.811 211.545 171.483 211.545 171.483L172.414 175.395Z" fill="white"/>
<path d="M197.992 271.005C188.699 271.005 162.33 267.811 145.631 265.622C145.502 265.604 145.379 265.558 145.269 265.489C145.159 265.419 145.065 265.327 144.994 265.218C144.922 265.109 144.875 264.987 144.854 264.858C144.834 264.73 144.842 264.599 144.876 264.473L171.551 175.09C171.6 174.917 171.7 174.764 171.838 174.648C171.976 174.533 172.145 174.462 172.324 174.444L211.473 170.532C211.606 170.519 211.739 170.537 211.864 170.584C211.988 170.631 212.101 170.705 212.192 170.801C212.289 170.892 212.362 171.004 212.406 171.129C212.45 171.254 212.463 171.388 212.444 171.519C208.723 204.717 201.659 267.973 201.659 269.785C201.643 270.079 201.514 270.355 201.3 270.557C200.245 270.955 199.114 271.108 197.992 271.005ZM146.835 264.025C165.961 266.465 195.655 269.857 199.826 269.265C200.509 261.513 209.262 183.273 210.467 172.488L173.043 176.238L146.835 264.025Z" fill="#231F20"/>
<path d="M121.85 153.197C122.084 153.448 131.556 150.918 136.446 156.786C141.335 162.654 134.99 167.894 119.549 164.861C104.109 161.828 121.85 153.197 121.85 153.197Z" fill="white"/>
<path d="M127.692 166.638C124.896 166.61 122.109 166.315 119.369 165.758C114.912 164.879 112.611 163.443 112.341 161.344C111.82 157.288 119.837 153.179 121.455 152.371C121.641 152.309 121.843 152.309 122.03 152.371H122.623C125.139 152.066 132.797 151.097 137.147 156.301C139.088 158.598 139.501 160.949 138.351 162.923C136.859 165.274 132.994 166.638 127.692 166.638ZM122.048 154.076C118.543 155.871 113.923 159.029 114.175 161.021C114.175 161.685 115.109 162.941 119.729 163.856C130.172 165.902 135.421 164 136.751 161.757C137.069 160.995 137.141 160.154 136.957 159.35C136.774 158.546 136.344 157.819 135.727 157.27C132.024 152.856 125.355 153.681 122.857 154.004C122.515 154.076 122.263 154.076 122.048 154.076Z" fill="#231F20"/>
<path d="M98.1051 134.444C98.1051 134.444 96.1638 132.219 97.3861 130.658C97.6611 130.341 98.0078 130.094 98.3974 129.938C98.7871 129.781 99.2085 129.72 99.6268 129.758C100.045 129.797 100.448 129.934 100.802 130.16C101.157 130.385 101.452 130.691 101.664 131.053C101.664 131.053 98.6084 132.148 98.1051 134.444Z" fill="white"/>
<path d="M98.105 135.36C97.9732 135.361 97.8427 135.335 97.7218 135.282C97.601 135.229 97.4927 135.152 97.404 135.055C96.5053 134.014 95.3189 131.789 96.667 130.102C96.9684 129.706 97.3572 129.386 97.803 129.165C98.2488 128.944 98.7397 128.828 99.2374 128.828C99.8501 128.838 100.452 128.991 100.995 129.275C101.538 129.558 102.007 129.964 102.365 130.461C102.464 130.575 102.532 130.712 102.563 130.859C102.595 131.007 102.588 131.16 102.545 131.304C102.507 131.447 102.435 131.58 102.335 131.689C102.235 131.798 102.109 131.882 101.97 131.932C101.251 132.183 99.3273 133.188 99.0038 134.642C98.9692 134.809 98.8886 134.963 98.7711 135.086C98.6536 135.21 98.5038 135.298 98.3387 135.342L98.105 135.36ZM99.2734 130.676C99.0552 130.679 98.8404 130.731 98.6445 130.827C98.4487 130.923 98.2767 131.062 98.141 131.232C98.0386 131.429 97.9851 131.648 97.9851 131.869C97.9851 132.091 98.0386 132.31 98.141 132.506C98.6824 131.843 99.3402 131.284 100.082 130.855C99.8338 130.747 99.5599 130.709 99.2914 130.748L99.2734 130.676Z" fill="#231F20"/>
<path d="M102.347 130.963C101.278 131.05 100.268 131.488 99.474 132.209C98.6805 132.929 98.1485 133.892 97.9613 134.947L136.518 185.031C136.756 182.631 137.794 180.38 139.466 178.639C141.138 176.899 143.347 175.769 145.739 175.431L102.347 130.963Z" fill="white"/>
<path d="M136.5 185.946C136.36 185.945 136.223 185.912 136.099 185.85C135.974 185.788 135.865 185.698 135.781 185.588L97.2244 135.503C97.1373 135.39 97.0774 135.258 97.0494 135.118C97.0214 134.978 97.0259 134.834 97.0626 134.696C97.3164 133.451 97.9694 132.322 98.9228 131.48C99.8763 130.638 101.078 130.129 102.347 130.03C102.472 130.031 102.595 130.057 102.709 130.107C102.823 130.156 102.926 130.227 103.012 130.317L146.404 174.785C146.524 174.904 146.609 175.055 146.647 175.22C146.685 175.385 146.676 175.558 146.62 175.718C146.569 175.878 146.475 176.022 146.349 176.133C146.222 176.244 146.067 176.317 145.901 176.346C143.71 176.645 141.683 177.671 140.147 179.26C138.612 180.848 137.656 182.906 137.434 185.103C137.419 185.289 137.348 185.467 137.229 185.611C137.11 185.755 136.95 185.86 136.769 185.911L136.5 185.946ZM98.9859 134.767L136.032 182.878C136.554 180.984 137.553 179.256 138.935 177.858C140.316 176.46 142.034 175.439 143.923 174.892L102.006 131.932C101.289 132.079 100.627 132.423 100.094 132.923C99.5607 133.424 99.1771 134.062 98.9859 134.767Z" fill="#231F20"/>
<path d="M136.518 185.031L149.675 191.85L151.311 190.325L145.739 175.431C145.739 175.431 135.493 174.408 136.518 185.031Z" fill="white"/>
<path d="M149.675 192.765C149.525 192.768 149.376 192.731 149.244 192.658L136.086 185.839C135.947 185.769 135.827 185.665 135.739 185.536C135.651 185.407 135.597 185.258 135.583 185.103C135.333 183.675 135.412 182.209 135.813 180.816C136.215 179.423 136.929 178.14 137.902 177.064C138.987 176.132 140.246 175.426 141.607 174.985C142.968 174.545 144.403 174.379 145.829 174.498C146.005 174.514 146.173 174.58 146.313 174.688C146.453 174.796 146.559 174.942 146.62 175.108L152.174 190.002C152.241 190.174 152.254 190.361 152.212 190.54C152.171 190.72 152.076 190.882 151.94 191.007L150.305 192.532C150.13 192.684 149.907 192.766 149.675 192.765ZM137.398 184.439L149.514 190.72L150.233 190.074L145.092 176.328C142.942 176.267 140.844 176.995 139.196 178.374C138.474 179.194 137.939 180.162 137.629 181.209C137.319 182.256 137.24 183.358 137.398 184.439Z" fill="#231F20"/>
<path d="M149.675 191.85L152.192 194.542L153.378 193.196L151.311 190.325L149.675 191.85Z" fill="white"/>
<path d="M152.192 195.475C152.065 195.476 151.94 195.449 151.825 195.397C151.71 195.344 151.608 195.267 151.527 195.17L148.992 192.478C148.829 192.296 148.739 192.059 148.741 191.814C148.755 191.568 148.864 191.336 149.046 191.168L150.682 189.643C150.779 189.555 150.894 189.489 151.019 189.448C151.143 189.407 151.275 189.393 151.406 189.407C151.537 189.42 151.663 189.461 151.777 189.526C151.89 189.592 151.989 189.681 152.066 189.787L154.133 192.658C154.264 192.82 154.336 193.023 154.336 193.232C154.336 193.441 154.264 193.644 154.133 193.806L152.947 195.152C152.864 195.253 152.76 195.335 152.642 195.391C152.524 195.446 152.394 195.475 152.264 195.475H152.192ZM150.987 191.886L152.174 193.16L151.149 191.743L150.987 191.886Z" fill="#231F20"/>
<path d="M124.295 188.961C126.416 184.672 131.736 175.574 132.959 171.626C136.338 160.859 116.547 150.774 110.148 150.774C103.749 150.774 90.3759 173.098 90.3759 185.031C90.3759 196.965 134.684 288.34 134.684 288.34L177.195 268.924L124.295 188.961Z" fill="white"/>
<path d="M134.738 289.273C134.565 289.273 134.396 289.224 134.249 289.132C134.103 289.04 133.986 288.909 133.911 288.753C132.114 285.02 89.495 197.018 89.495 185.031C89.495 173.044 103.012 149.841 110.148 149.841C115.073 149.841 126.523 155.081 131.718 162.044C132.868 163.382 133.671 164.982 134.057 166.703C134.442 168.424 134.398 170.213 133.929 171.913C132.215 176.145 130.209 180.252 127.926 184.206C126.973 186 126.128 187.615 125.445 188.889L178.094 268.385C178.167 268.498 178.216 268.625 178.238 268.758C178.26 268.891 178.253 269.027 178.22 269.157C178.181 269.283 178.116 269.399 178.029 269.498C177.943 269.597 177.836 269.676 177.716 269.731L135.187 289.184C135.052 289.264 134.894 289.296 134.738 289.273ZM110.148 151.69C104.522 151.69 91.3644 173.223 91.3644 185.031C91.3644 196.014 130.784 278.004 135.169 287.138L175.883 268.511L123.522 189.553C123.443 189.41 123.402 189.25 123.402 189.087C123.402 188.924 123.443 188.763 123.522 188.62C124.205 187.256 125.193 185.408 126.272 183.398C128.495 179.546 130.453 175.547 132.132 171.429C132.511 170.007 132.534 168.513 132.198 167.08C131.863 165.646 131.18 164.318 130.208 163.21C125.193 156.409 114.283 151.69 110.148 151.69Z" fill="#231F20"/>
<path d="M350.474 207.05L402.871 193.717C401.074 191.186 379.935 124.198 357.646 113.234C338.143 100.313 291.894 91.6996 251.036 94.6247C251.036 94.6247 240.251 94.2299 221.342 101.713C175.29 119.981 166.41 183.596 166.41 183.596L202.36 195.996C202.36 195.996 195.494 278.273 189.005 321.287C189.005 321.287 268.49 336.809 384.213 317.698C384.303 317.662 350.69 219.216 350.474 207.05Z" fill="#5338E3"/>
<path d="M346.16 115.082C339.222 122.26 333.811 130.873 326.154 137.639C309.653 152.21 288.065 163.749 265.434 162.349C238.76 160.698 215.698 142.502 209.91 115.997C206.315 99.3801 210.053 83.9474 222.924 72.2114C231.821 64.1003 243.217 59.1475 254.865 56.061C285.8 47.7884 320.51 52.1849 346.915 70.3093C351.23 72.9605 354.871 76.5717 357.556 80.8609C364.153 92.7943 356.568 105.069 348.012 113.269C347.436 113.826 346.825 114.454 346.16 115.082Z" fill="#5338E3"/>
<path d="M255.153 133.888C254.883 133.888 249.922 139.918 249.67 140.007C252.492 150.631 255.476 164.466 267.519 165.83C291.947 168.612 295.65 136.095 300.252 120.752C283.337 125.49 271.402 127.392 255.153 133.888Z" fill="#231F20"/>
<path d="M270.377 166.907C269.392 166.899 268.408 166.839 267.43 166.727C255.404 165.364 252.007 152.371 249.257 141.981L248.789 140.187C248.746 140.011 248.757 139.825 248.821 139.656C248.885 139.486 249 139.339 249.149 139.236C249.437 138.967 250.749 137.441 251.701 136.329C254.488 133.134 254.523 133.117 254.811 132.991C264.761 129.151 274.972 126.026 285.369 123.642C289.952 122.493 294.68 121.309 299.928 119.837C300.083 119.794 300.246 119.793 300.401 119.834C300.555 119.875 300.696 119.957 300.809 120.071C300.917 120.187 300.993 120.329 301.031 120.482C301.069 120.636 301.067 120.797 301.025 120.95C300.342 123.229 299.677 125.921 298.958 128.774C295.237 144.135 289.539 166.889 270.377 166.907ZM250.605 140.294L250.929 141.533C253.679 151.941 256.77 163.731 267.573 164.861C287.58 167.14 293.17 144.691 297.268 128.289C297.825 126.046 298.365 123.893 298.904 121.955C294.248 123.229 289.916 124.306 285.836 125.346C275.534 127.681 265.418 130.764 255.566 134.57C255.207 134.929 253.948 136.365 253.014 137.459C251.755 139.074 251.054 139.864 250.659 140.294H250.605Z" fill="#231F20"/>
<path d="M278.808 8.72224C275.213 8.57868 272.912 10.1399 269.82 11.2525C263.799 13.37 260.995 8.3454 255.818 5.6716C247.667 1.44137 238.301 0.157712 229.311 2.03858C220.32 3.91945 212.258 8.84891 206.494 15.9899C202.908 20.2307 200.585 25.391 199.79 30.8842C199.035 37.0932 200.778 43.4457 199.7 49.5829C199.041 53.1075 197.493 56.4066 195.204 59.1694C192.915 61.9321 189.959 64.0675 186.614 65.3744C192.369 65.8178 198.157 65.2715 203.726 63.7594C202.125 65.6589 200.136 67.1942 197.891 68.2621C195.646 69.3299 193.198 69.9056 190.712 69.9504C196.444 74.3506 203.488 76.7071 210.718 76.6438L198.046 79.6047C208.831 86.5135 221.971 88.5772 234.679 88.003C259.988 86.693 302.373 76.3567 301.636 43.6251C301.223 31.0816 294.32 9.44004 278.808 8.72224Z" fill="white"/>
<path d="M230.329 89.0617C220.641 89.0617 208.238 87.2672 197.489 80.4123C197.341 80.3142 197.226 80.1755 197.155 80.0131C197.085 79.8507 197.064 79.6715 197.093 79.4971C197.13 79.3264 197.213 79.1691 197.334 79.0424C197.454 78.9158 197.608 78.8248 197.776 78.7793L204.823 77.1463C199.459 76.2341 194.4 74.0289 190.083 70.722C189.932 70.609 189.821 70.4515 189.765 70.2717C189.708 70.092 189.71 69.8991 189.77 69.7205C189.829 69.5418 189.944 69.3864 190.097 69.2763C190.25 69.1662 190.434 69.107 190.622 69.107C194.313 69.0465 197.877 67.7511 200.742 65.4282C196.051 66.3994 191.246 66.7015 186.47 66.3255C186.268 66.3071 186.078 66.2208 185.931 66.0806C185.784 65.9405 185.689 65.7548 185.661 65.5539C185.628 65.3507 185.668 65.1424 185.773 64.9653C185.878 64.7883 186.042 64.6536 186.236 64.5848C189.45 63.3506 192.293 61.3158 194.495 58.674C196.698 56.0323 198.186 52.8717 198.819 49.4931C199.251 46.2676 199.288 43.0013 198.927 39.767C198.646 36.7827 198.646 33.7788 198.927 30.7945C199.744 25.1309 202.136 19.8093 205.829 15.4337C211.723 8.13141 219.969 3.09192 229.163 1.17164C238.358 -0.748633 247.935 0.568776 256.267 4.89998C257.799 5.73483 259.254 6.70154 260.617 7.78912C263.529 9.99634 265.83 11.737 269.605 10.427C270.413 10.1399 271.168 9.81689 271.905 9.51183C274.099 8.39955 276.527 7.82733 278.988 7.84295C294.554 8.52486 302.355 29.5922 302.607 43.6252C302.93 58.5015 294.788 70.2195 278.394 78.4204C262.001 86.6212 242.444 88.5234 234.805 88.9182C233.295 89.0258 231.839 89.0617 230.329 89.0617ZM200.311 80.0892C211.923 86.8186 225.242 87.7158 234.571 87.2672C242.049 86.8724 261.174 85.0959 277.442 76.9489C293.17 69.089 300.971 57.9452 300.665 43.8046C300.36 30.4536 293.188 10.4091 278.772 9.70923C276.579 9.7245 274.419 10.2466 272.463 11.2345C271.69 11.5576 270.899 11.8985 270.054 12.1856C265.398 13.8186 262.486 11.6114 259.413 9.27855C258.135 8.2569 256.77 7.35013 255.332 6.56886C247.37 2.42194 238.215 1.1587 229.424 2.9943C220.634 4.82989 212.753 9.6508 207.123 16.636C203.655 20.7234 201.396 25.6945 200.599 30.9919C200.329 33.8508 200.329 36.7287 200.599 39.5875C200.964 42.9664 200.916 46.3772 200.455 49.7444C199.887 52.8184 198.668 55.7358 196.879 58.3014C195.09 60.8669 192.773 63.0215 190.083 64.6207C194.565 64.6149 199.027 64.0114 203.349 62.8262C203.535 62.7723 203.733 62.7799 203.915 62.8478C204.096 62.9157 204.251 63.0403 204.355 63.2031C204.465 63.3578 204.524 63.5428 204.524 63.7324C204.524 63.9221 204.465 64.1071 204.355 64.2618C201.51 67.6408 197.541 69.8833 193.175 70.5784C198.374 73.9624 204.459 75.7356 210.665 75.6748C210.886 75.6691 211.102 75.7473 211.269 75.8937C211.436 76.0401 211.541 76.2439 211.563 76.4644C211.591 76.684 211.537 76.9064 211.411 77.0886C211.285 77.2708 211.096 77.4 210.88 77.4514L200.311 80.0892Z" fill="#231F20"/>
<path d="M247.873 109.106L249.67 140.007C249.67 140.007 263.817 156.158 282.025 146.234C300.234 136.311 299.533 120.573 299.533 120.573L287.58 62.5571C287.58 62.5571 271.061 58.7527 266.854 26.2724C252.763 37.4112 235.921 44.547 218.106 46.927C218.106 46.927 218.43 83.2655 224.847 97.7112C231.264 112.157 247.873 109.106 247.873 109.106Z" fill="white"/>
<path d="M270.072 150.344C257.705 150.344 249.095 140.743 248.987 140.6C248.854 140.451 248.777 140.261 248.771 140.061L246.974 110.111C243.181 110.488 229.664 110.847 223.966 98.0163C217.549 83.6603 217.171 48.3626 217.153 46.8732C217.155 46.6565 217.234 46.4474 217.375 46.2831C217.517 46.1188 217.712 46.0099 217.926 45.9759C235.553 43.5767 252.219 36.5273 266.207 25.5546C266.331 25.4467 266.481 25.3746 266.643 25.3461C266.805 25.3177 266.971 25.3339 267.124 25.3931C267.275 25.4515 267.407 25.5486 267.508 25.6747C267.609 25.8008 267.675 25.9512 267.699 26.1109C269.82 42.5485 275.177 51.3235 279.293 55.8098C281.517 58.4895 284.441 60.502 287.741 61.6239C287.906 61.6672 288.056 61.7556 288.174 61.8793C288.291 62.0029 288.372 62.1569 288.406 62.3238L300.378 120.394C300.378 120.699 300.917 136.939 282.403 147.024C278.641 149.156 274.398 150.298 270.072 150.344ZM250.533 139.577C252.331 141.533 265.201 154.345 281.612 145.391C299.083 135.844 298.652 120.681 298.652 120.537L286.807 63.1134C283.823 62.1264 270.306 56.1687 266.189 27.8157C252.371 38.2356 236.153 45.0231 219.023 47.5551C219.023 52.9386 219.922 84.2704 225.656 97.2087C231.713 110.811 247.064 108.245 247.711 108.137C247.835 108.113 247.964 108.115 248.087 108.143C248.211 108.17 248.328 108.224 248.43 108.299C248.528 108.381 248.609 108.483 248.667 108.597C248.726 108.711 248.761 108.835 248.771 108.963L250.533 139.577Z" fill="#231F20"/>
<path d="M280.839 78.8151C285.062 79.4502 289.365 78.3923 292.81 75.8722C295.136 74.0332 296.95 71.6282 298.077 68.888C299.203 66.1478 299.606 63.1644 299.245 60.2242C299.135 58.0267 298.52 55.8839 297.448 53.9614C296.923 52.9999 296.197 52.1625 295.319 51.506C294.442 50.8496 293.433 50.3895 292.361 50.1571C289.706 49.9923 287.07 50.6912 284.847 52.149C281.36 53.9435 281.252 55.9354 279.347 58.8783C279.563 58.6092 279.724 57.8555 279.94 57.5863" fill="white"/>
<path d="M283.248 79.9098C282.393 79.9065 281.54 79.8405 280.695 79.7124C280.458 79.6727 280.245 79.5413 280.104 79.3465C279.963 79.1517 279.904 78.9093 279.94 78.6716C279.958 78.5554 279.998 78.4439 280.059 78.3437C280.121 78.2434 280.201 78.1564 280.297 78.0879C280.392 78.0193 280.501 77.9705 280.615 77.9444C280.73 77.9183 280.849 77.9154 280.965 77.9358C284.947 78.5209 288.999 77.508 292.235 75.1185C294.437 73.3692 296.152 71.0834 297.213 68.4811C298.273 65.8787 298.645 63.0475 298.293 60.2601C298.221 58.2013 297.673 56.1869 296.693 54.3741C296.229 53.5341 295.592 52.8021 294.824 52.2267C294.055 51.6512 293.173 51.2455 292.235 51.0364C290.006 50.6416 287.777 51.6645 285.297 52.9385C283.592 53.7663 282.259 55.1999 281.558 56.9582C281.18 57.6401 280.767 58.4118 280.21 59.2552C280.172 59.328 280.124 59.3946 280.066 59.4526C279.921 59.6311 279.713 59.746 279.484 59.7728C279.256 59.7997 279.026 59.7362 278.844 59.5961C278.654 59.4623 278.524 59.259 278.484 59.0304C278.444 58.8018 278.495 58.5665 278.628 58.3759C278.628 58.3759 278.628 58.1426 278.754 58.017C278.859 57.6921 279.011 57.3839 279.203 57.1018C279.296 56.993 279.413 56.907 279.545 56.8505L279.886 56.2045C280.774 54.1228 282.382 52.4289 284.416 51.4312C286.537 50.3365 289.467 48.8292 292.469 49.3496C293.689 49.5913 294.842 50.0954 295.848 50.8267C296.854 51.558 297.688 52.4991 298.293 53.5846C299.395 55.637 300.01 57.9148 300.09 60.2421C300.47 63.3315 300.044 66.4664 298.854 69.3431C297.663 72.2198 295.749 74.7408 293.296 76.6618C290.377 78.7829 286.858 79.9205 283.248 79.9098Z" fill="#231F20"/>
<path d="M248.807 125.364C252.347 125.11 255.772 123.996 258.782 122.12C261.793 120.243 264.298 117.661 266.081 114.597C272.427 104.028 269.892 97.2625 269.892 97.2625C269.892 97.2625 261.336 108.155 247.873 109.034L248.807 125.364Z" fill="#231F20"/>
<path d="M248.807 126.244C248.58 126.244 248.361 126.156 248.197 125.999C248.033 125.842 247.936 125.627 247.927 125.4L246.974 109.25C246.967 109.132 246.983 109.014 247.021 108.902C247.06 108.79 247.12 108.687 247.199 108.599C247.277 108.511 247.372 108.439 247.479 108.387C247.585 108.336 247.701 108.306 247.819 108.299C260.707 107.473 269.101 96.9934 269.191 96.8857C269.289 96.7588 269.418 96.6603 269.567 96.6004C269.716 96.5405 269.877 96.5212 270.036 96.5447C270.193 96.5716 270.34 96.6386 270.463 96.7393C270.585 96.8399 270.68 96.9708 270.737 97.119C270.845 97.4061 273.343 104.405 266.836 115.225C264.984 118.408 262.375 121.086 259.24 123.024C256.105 124.961 252.541 126.098 248.861 126.333L248.807 126.244ZM248.807 109.914L249.652 124.395C252.863 124 255.94 122.876 258.648 121.109C261.355 119.343 263.622 116.98 265.273 114.203C269.569 107.025 269.676 101.785 269.353 99.2724C263.971 105.121 256.696 108.889 248.807 109.914Z" fill="#231F20"/>
<path d="M245.5 59.9909C245.5 59.9909 238.759 77.7205 241.815 79.838C244.871 81.9555 251.324 78.5819 251.324 78.5819" fill="white"/>
<path d="M244.475 81.4351C243.351 81.4866 242.238 81.1854 241.294 80.5738C237.915 78.2409 243.091 63.9926 244.637 59.6679C244.722 59.4476 244.89 59.2694 245.105 59.172C245.321 59.0746 245.566 59.0658 245.788 59.1475C245.899 59.1893 246.001 59.2527 246.088 59.3342C246.174 59.4156 246.244 59.5134 246.293 59.6219C246.341 59.7304 246.367 59.8475 246.37 59.9663C246.373 60.0851 246.352 60.2032 246.309 60.3139C243.181 68.5507 240.916 78.0794 242.319 79.0843C244.458 80.5558 249.239 78.6536 250.893 77.7923C251.105 77.6837 251.352 77.6623 251.58 77.7327C251.809 77.8031 252.001 77.9597 252.115 78.1691C252.221 78.381 252.24 78.6265 252.166 78.8517C252.092 79.077 251.931 79.2639 251.719 79.3715C249.48 80.5686 247.01 81.2723 244.475 81.4351Z" fill="#231F20"/>
<path d="M258.759 59.5422C260.128 59.1003 260.731 57.1749 260.106 55.2416C259.48 53.3084 257.862 52.0994 256.492 52.5413C255.123 52.9833 254.52 54.9087 255.145 56.842C255.771 58.7752 257.389 59.9842 258.759 59.5422Z" fill="#231F20"/>
<path d="M233.611 65.4128C235.05 65.3932 236.195 63.7305 236.167 61.699C236.139 59.6675 234.95 58.0365 233.511 58.0561C232.071 58.0756 230.927 59.7384 230.955 61.7699C230.982 63.8014 232.172 65.4324 233.611 65.4128Z" fill="#231F20"/>
<path d="M247.639 102.61C245.913 102.655 244.216 102.159 242.786 101.193C237.124 97.0652 236.71 87.9491 236.692 87.5544C236.687 87.3423 236.756 87.135 236.888 86.9681C237.019 86.8011 237.204 86.6849 237.411 86.6392C260.671 81.5607 260.923 81.7402 261.336 82.0453C261.439 82.1226 261.525 82.2195 261.59 82.3304C261.655 82.4413 261.697 82.564 261.714 82.6913C262.073 86.3092 261.575 89.9609 260.258 93.3506C259.466 95.4286 258.211 97.2998 256.589 98.823C254.966 100.346 253.019 101.482 250.893 102.144C249.835 102.449 248.74 102.606 247.639 102.61ZM238.562 88.2542C238.777 90.4255 239.748 96.7781 243.81 99.721C244.778 100.314 245.864 100.685 246.992 100.81C248.12 100.934 249.262 100.807 250.335 100.439C252.209 99.8565 253.926 98.8582 255.358 97.5187C256.79 96.1792 257.9 94.5333 258.604 92.7046C259.716 89.8509 260.183 86.7869 259.97 83.7321C256.878 84.2884 245.967 86.6212 238.562 88.2363V88.2542Z" fill="#231F20"/>
<path d="M259.431 93.0634C255.979 101.39 247.333 103.382 243.253 100.493C244.17 97.3164 245.842 94.0145 248.951 92.8122C252.363 91.6502 256.078 91.7393 259.431 93.0634Z" fill="#231F20"/>
<path d="M247.639 102.592C245.915 102.64 244.219 102.151 242.786 101.192C242.638 101.085 242.527 100.933 242.469 100.76C242.411 100.586 242.408 100.399 242.462 100.223C243.685 95.8449 245.788 93.0455 248.682 91.9508C252.28 90.73 256.193 90.8126 259.736 92.1841C259.851 92.2261 259.956 92.2906 260.046 92.3738C260.135 92.457 260.207 92.5572 260.258 92.6686C260.347 92.8934 260.347 93.1437 260.258 93.3685C259.461 95.4418 258.205 97.3082 256.583 98.8279C254.961 100.348 253.016 101.481 250.893 102.144C249.834 102.442 248.739 102.593 247.639 102.592ZM244.368 100.062C246.237 100.943 248.374 101.072 250.335 100.421C252.057 99.8953 253.648 99.0131 255.004 97.8319C256.361 96.6506 257.453 95.197 258.208 93.5659C255.326 92.6093 252.211 92.6093 249.329 93.5659C247.118 94.4631 245.5 96.6524 244.368 100.062Z" fill="#231F20"/>
<path d="M217.261 74.311C216.031 74.3106 214.838 73.8904 213.88 73.1201C212.922 72.3498 212.257 71.2757 211.995 70.076L210.107 61.5163C209.803 60.1218 210.065 58.6637 210.837 57.4624C211.609 56.2611 212.827 55.4149 214.224 55.1099L234.266 50.7134C234.959 50.5602 235.675 50.545 236.374 50.6687C237.072 50.7925 237.74 51.0527 238.338 51.4344C238.936 51.8162 239.452 52.312 239.858 52.8935C240.263 53.4749 240.55 54.1306 240.701 54.8228L242.498 63.3825C242.789 64.759 242.529 66.1945 241.773 67.3817C241.017 68.569 239.826 69.4137 238.454 69.735L218.412 74.1136C218.037 74.2239 217.651 74.2901 217.261 74.311ZM235.434 52.4541C235.177 52.4275 234.918 52.4275 234.661 52.4541L214.637 56.8326C213.723 57.0431 212.927 57.6019 212.42 58.3897C211.913 59.1776 211.735 60.1322 211.923 61.0497L213.81 69.735C214.025 70.6406 214.584 71.4274 215.368 71.9296C216.153 72.4317 217.102 72.61 218.016 72.4268L238.058 67.9406C238.965 67.7261 239.754 67.1684 240.257 66.385C240.76 65.6016 240.938 64.6538 240.755 63.7414L238.957 55.1817C238.776 54.3996 238.338 53.7005 237.712 53.1963C237.087 52.6921 236.31 52.4118 235.506 52.4002L235.434 52.4541Z" fill="#231F20"/>
<path d="M252.978 66.5049C251.944 66.5022 250.934 66.2033 250.066 65.6436C248.865 64.8744 248.018 63.6612 247.711 62.2699L245.914 53.7102C245.605 52.3166 245.864 50.8579 246.633 49.6546C247.014 49.0557 247.511 48.538 248.094 48.1315C248.677 47.725 249.335 47.4376 250.03 47.2859L270.054 42.9073C270.747 42.7541 271.463 42.7389 272.162 42.8626C272.861 42.9864 273.528 43.2466 274.126 43.6283C274.724 44.0101 275.24 44.5059 275.646 45.0874C276.051 45.6688 276.338 46.3245 276.489 47.0167L278.286 55.5765C278.599 56.9609 278.351 58.4126 277.597 59.6157C276.843 60.8188 275.644 61.6759 274.26 62.0007L254.236 66.3793C253.821 66.4611 253.4 66.5031 252.978 66.5049ZM271.15 44.6121C270.89 44.6153 270.631 44.6454 270.377 44.7018L250.353 49.0983C249.897 49.1939 249.465 49.3797 249.082 49.6447C248.7 49.9098 248.374 50.2488 248.124 50.6416C247.618 51.4349 247.444 52.3951 247.639 53.3154L249.526 61.8751C249.741 62.7806 250.3 63.5675 251.085 64.0696C251.869 64.5718 252.819 64.7501 253.733 64.5669L273.775 60.1883C274.691 59.9842 275.491 59.4303 276.004 58.645C276.504 57.8492 276.672 56.8892 276.471 55.9712L274.674 47.4115C274.493 46.6141 274.046 45.902 273.405 45.3929C272.765 44.8839 271.969 44.6084 271.15 44.6121Z" fill="#231F20"/>
<path d="M239.784 55.9533C239.619 55.9568 239.457 55.9132 239.317 55.8277C239.107 55.704 238.954 55.5035 238.89 55.2689C238.827 55.0343 238.857 54.7841 238.975 54.5716C239.82 53.118 242.57 50.839 247.082 52.6514C247.32 52.7419 247.513 52.9231 247.617 53.1553C247.722 53.3875 247.73 53.6517 247.639 53.8896C247.549 54.1276 247.367 54.3199 247.134 54.4242C246.902 54.5286 246.637 54.5364 246.399 54.4459C242.372 52.8309 240.755 55.2894 240.593 55.5765C240.499 55.7005 240.376 55.7996 240.235 55.8653C240.094 55.931 239.939 55.9612 239.784 55.9533Z" fill="#231F20"/>
<path d="M60.717 294.836H430.283L489.583 402.955H1.41748L60.717 294.836Z" fill="white"/>
<path d="M489.583 403.852H1.41757C1.2628 403.851 1.11075 403.811 0.975597 403.736C0.840445 403.66 0.726588 403.552 0.644648 403.421C0.569127 403.284 0.529541 403.129 0.529541 402.972C0.529541 402.816 0.569127 402.661 0.644648 402.524L59.9621 294.406C60.0382 294.263 60.1523 294.144 60.2918 294.061C60.4314 293.979 60.591 293.937 60.753 293.939H430.265C430.427 293.937 430.587 293.979 430.726 294.061C430.866 294.144 430.98 294.263 431.056 294.406L490.373 402.524C490.449 402.661 490.489 402.816 490.489 402.972C490.489 403.129 490.449 403.284 490.373 403.421C490.29 403.555 490.173 403.665 490.035 403.74C489.896 403.816 489.74 403.854 489.583 403.852ZM2.94545 402.057H488.055L429.744 295.734H61.2563L2.94545 402.057Z" fill="#D1D3D4"/>
<path d="M66.451 225.084L67.242 221.675C69.0395 218.265 71.0347 215.968 75.6722 215.968H251.594C253.72 215.972 255.789 216.662 257.49 217.937C259.191 219.211 260.433 221.001 261.03 223.039L289.629 321.126C290.367 323.229 290.274 325.534 289.368 327.571C288.463 329.608 286.814 331.224 284.757 332.09L281.648 332.826L66.451 225.084Z" fill="white"/>
<path d="M281.648 333.723C281.511 333.719 281.377 333.688 281.252 333.633L66.0557 225.856C65.8742 225.767 65.7286 225.619 65.6435 225.436C65.5585 225.253 65.539 225.047 65.5884 224.851L66.3792 221.441C66.3714 221.364 66.3714 221.286 66.3792 221.208C68.1767 217.96 70.2439 215.035 75.6004 215.035H251.522C253.841 215.044 256.096 215.8 257.952 217.19C259.807 218.58 261.164 220.531 261.821 222.751L290.438 320.964C291.241 323.282 291.131 325.818 290.13 328.058C289.128 330.298 287.31 332.073 285.045 333.023L281.828 333.795L281.648 333.723ZM67.5476 224.6L281.828 331.875L284.614 331.229C288.946 329.542 289.844 324.93 288.82 321.377L260.222 223.29C259.673 221.442 258.543 219.819 256.999 218.662C255.455 217.505 253.578 216.875 251.648 216.866H75.6723C71.6998 216.866 69.9922 218.66 68.0869 221.998L67.5476 224.6Z" fill="#231F20"/>
<path d="M281.648 332.826H102.132C100.912 332.812 99.7288 332.407 98.7576 331.67C97.7864 330.933 97.0787 329.904 96.739 328.734L66.5231 225.084C66.4091 224.687 66.389 224.268 66.4645 223.861C66.54 223.455 66.7089 223.071 66.958 222.741C67.2072 222.41 67.5297 222.142 67.9002 221.957C68.2708 221.772 68.6792 221.675 69.0935 221.675H253.409L284.632 328.86C284.769 329.322 284.797 329.81 284.711 330.285C284.626 330.759 284.43 331.207 284.14 331.593C283.85 331.979 283.474 332.291 283.041 332.505C282.608 332.719 282.131 332.829 281.648 332.826Z" fill="#231F20"/>
<path d="M281.648 333.723H102.131C100.707 333.716 99.3227 333.252 98.1832 332.399C97.0437 331.545 96.2096 330.349 95.8043 328.986L65.5883 225.336C65.4424 224.806 65.4203 224.249 65.5239 223.709C65.6274 223.169 65.8538 222.661 66.1855 222.222C66.5173 221.783 66.9455 221.426 67.4372 221.179C67.9289 220.932 68.4709 220.801 69.0215 220.795H253.409C253.6 220.792 253.786 220.852 253.939 220.966C254.091 221.079 254.202 221.24 254.254 221.424L285.494 328.609C285.667 329.204 285.699 329.832 285.587 330.442C285.475 331.052 285.222 331.628 284.849 332.124C284.476 332.62 283.993 333.023 283.437 333.3C282.882 333.578 282.269 333.722 281.648 333.723ZM69.0215 222.572C68.748 222.576 68.479 222.643 68.2352 222.767C67.9913 222.89 67.7789 223.068 67.6142 223.286C67.4496 223.504 67.3369 223.757 67.2848 224.025C67.2328 224.293 67.2427 224.569 67.3139 224.833L97.5119 328.483C97.8091 329.476 98.4189 330.348 99.2509 330.968C100.083 331.589 101.093 331.926 102.131 331.928H281.648C281.995 331.931 282.338 331.852 282.65 331.7C282.962 331.547 283.234 331.324 283.445 331.049C283.648 330.775 283.785 330.457 283.844 330.12C283.904 329.784 283.884 329.439 283.787 329.111L252.69 222.572H69.0215Z" fill="#231F20"/>
<path d="M251.54 288.663L240.629 334.979C240.052 337.458 238.649 339.668 236.651 341.249C234.653 342.83 232.178 343.688 229.628 343.682H116.08C114.376 343.682 112.694 343.296 111.159 342.555C109.625 341.814 108.279 340.736 107.221 339.401C106.163 338.067 105.421 336.512 105.05 334.851C104.679 333.19 104.689 331.467 105.079 329.811L114.696 288.663H105.295L96.0919 327.694C95.3972 330.699 95.3904 333.822 96.072 336.83C96.7537 339.839 98.1061 342.655 100.029 345.07C101.951 347.484 104.395 349.434 107.177 350.776C109.959 352.117 113.008 352.814 116.098 352.816H229.718C234.322 352.813 238.791 351.262 242.404 348.414C246.017 345.565 248.564 341.585 249.634 337.115L261.031 288.663H251.54Z" fill="white"/>
<path d="M229.628 353.839H116.08C112.847 353.838 109.657 353.108 106.747 351.702C103.836 350.296 101.282 348.252 99.2754 345.722C97.2683 343.192 95.8603 340.242 95.1565 337.092C94.4527 333.942 94.4713 330.674 95.2111 327.532L104.396 288.484C104.445 288.288 104.558 288.114 104.718 287.99C104.878 287.866 105.075 287.8 105.277 287.802H114.768C114.903 287.804 115.035 287.835 115.157 287.894C115.278 287.953 115.384 288.038 115.469 288.143C115.551 288.248 115.609 288.37 115.637 288.501C115.665 288.632 115.663 288.767 115.631 288.897L105.942 330.044C105.585 331.57 105.577 333.157 105.92 334.686C106.263 336.215 106.947 337.647 107.922 338.876C108.897 340.104 110.136 341.097 111.549 341.78C112.962 342.463 114.51 342.819 116.08 342.821H229.7C232.049 342.825 234.331 342.034 236.172 340.578C238.013 339.121 239.306 337.084 239.838 334.8L250.749 288.484C250.794 288.289 250.904 288.116 251.06 287.992C251.217 287.868 251.412 287.801 251.612 287.802H261.102C261.236 287.805 261.368 287.837 261.489 287.896C261.609 287.955 261.715 288.039 261.799 288.144C261.883 288.248 261.943 288.37 261.975 288.5C262.007 288.63 262.009 288.765 261.983 288.897L250.569 337.348C249.472 342.061 246.8 346.262 242.995 349.259C239.189 352.256 234.475 353.871 229.628 353.839ZM105.906 289.596L96.9187 327.945C96.2369 330.827 96.2182 333.825 96.8641 336.716C97.5099 339.606 98.8035 342.312 100.648 344.632C102.492 346.951 104.838 348.823 107.511 350.107C110.184 351.391 113.114 352.054 116.08 352.045H229.7C234.133 352.058 238.438 350.568 241.913 347.82C245.387 345.072 247.824 341.228 248.825 336.917L259.97 289.596H252.331L241.546 335.212C240.929 337.894 239.417 340.286 237.257 341.995C235.098 343.704 232.42 344.628 229.664 344.616H116.08C114.239 344.616 112.421 344.2 110.763 343.4C109.105 342.6 107.651 341.435 106.508 339.994C105.365 338.552 104.563 336.871 104.163 335.077C103.763 333.282 103.776 331.421 104.199 329.632L113.618 289.596H105.906Z" fill="#231F20"/>
<path d="M397.964 194.219C397.964 194.219 414.034 265.46 400.876 283.657C387.718 301.853 295.83 298.982 295.83 298.982C295.83 298.982 280.929 316.837 267.987 315.652C255.045 314.468 262.594 290.027 277.819 279.852L275.716 271.364L356.729 258.39L345.944 207.193" fill="white"/>
<path d="M269.173 316.604C268.73 316.604 268.28 316.604 267.825 316.604C266.15 316.52 264.55 315.885 263.275 314.797C262 313.709 261.122 312.231 260.779 310.592C258.748 302.642 265.255 287.479 276.705 279.511L274.763 271.633C274.732 271.516 274.725 271.393 274.744 271.272C274.762 271.152 274.806 271.036 274.871 270.934C274.939 270.828 275.029 270.738 275.134 270.67C275.239 270.602 275.358 270.557 275.482 270.539L355.561 257.708L344.956 207.462C344.932 207.347 344.932 207.228 344.954 207.112C344.976 206.997 345.021 206.886 345.087 206.788C345.152 206.69 345.236 206.605 345.333 206.539C345.431 206.473 345.541 206.427 345.657 206.404C345.771 206.377 345.89 206.374 346.006 206.394C346.122 206.415 346.232 206.458 346.331 206.521C346.43 206.585 346.515 206.668 346.581 206.764C346.648 206.861 346.694 206.971 346.717 207.086L357.502 258.282C357.529 258.403 357.53 258.527 357.505 258.648C357.48 258.768 357.43 258.882 357.359 258.982C357.291 259.082 357.203 259.168 357.101 259.232C356.999 259.297 356.885 259.34 356.765 259.359L276.723 272.19L278.52 279.727C278.566 279.903 278.556 280.089 278.492 280.259C278.428 280.43 278.312 280.576 278.161 280.678C267.16 288.035 260.563 302.84 262.451 310.197C262.693 311.465 263.357 312.615 264.336 313.459C265.315 314.302 266.551 314.791 267.843 314.845C280.156 315.993 294.806 298.694 294.913 298.497C295.001 298.392 295.111 298.309 295.235 298.253C295.36 298.197 295.496 298.17 295.632 298.174C296.549 298.174 387.305 300.812 399.995 283.208C412.686 265.604 397.119 195.278 396.957 194.506C396.932 194.388 396.929 194.267 396.95 194.148C396.971 194.029 397.016 193.916 397.081 193.814C397.146 193.712 397.231 193.624 397.33 193.555C397.429 193.486 397.54 193.437 397.658 193.412C397.776 193.386 397.898 193.383 398.017 193.404C398.136 193.425 398.25 193.47 398.352 193.535C398.454 193.6 398.542 193.684 398.611 193.783C398.68 193.882 398.729 193.994 398.755 194.111C399.42 197.036 414.753 265.891 401.505 284.267C388.563 302.212 303.739 300.202 296.064 299.969C294.033 302.337 281.216 316.604 269.173 316.604Z" fill="#231F20"/>
<path d="M301.564 158.939C301.425 158.937 301.289 158.9 301.169 158.832C301.058 158.782 300.959 158.71 300.878 158.621C300.796 158.532 300.733 158.427 300.693 158.313C300.652 158.199 300.635 158.078 300.643 157.958C300.651 157.837 300.683 157.719 300.737 157.611C313.787 130.694 347.292 112.588 347.634 112.408C347.74 112.349 347.856 112.312 347.977 112.299C348.097 112.286 348.219 112.298 348.335 112.333C348.45 112.368 348.558 112.426 348.651 112.504C348.743 112.582 348.819 112.677 348.874 112.785C348.934 112.892 348.971 113.009 348.984 113.131C348.998 113.253 348.986 113.375 348.951 113.493C348.916 113.61 348.858 113.718 348.78 113.813C348.702 113.907 348.605 113.985 348.497 114.041C348.173 114.221 315.189 131.986 302.409 158.419C302.33 158.575 302.209 158.706 302.06 158.798C301.911 158.889 301.739 158.938 301.564 158.939Z" fill="#231F20"/>
<path d="M246.165 157.665C246.035 157.692 245.9 157.692 245.77 157.665C214.457 143.309 210.665 111.762 210.629 111.457C210.603 111.212 210.676 110.967 210.831 110.776C210.986 110.584 211.21 110.461 211.455 110.434C211.576 110.419 211.698 110.428 211.815 110.461C211.932 110.493 212.042 110.549 212.137 110.624C212.232 110.699 212.312 110.792 212.37 110.898C212.429 111.004 212.467 111.121 212.48 111.242C212.48 111.547 216.219 142.071 246.632 155.817C246.855 155.919 247.028 156.104 247.116 156.332C247.203 156.56 247.197 156.813 247.1 157.037C247.031 157.227 246.904 157.391 246.735 157.504C246.567 157.617 246.368 157.673 246.165 157.665Z" fill="#231F20"/>
<path d="M103.498 198.346C103.302 198.291 103.13 198.173 103.008 198.011C102.886 197.849 102.82 197.652 102.82 197.449C102.82 197.246 102.886 197.049 103.008 196.887C103.13 196.725 103.302 196.608 103.498 196.552C117.051 196.139 123.63 188.495 123.701 188.423C123.778 188.329 123.872 188.252 123.979 188.195C124.085 188.138 124.202 188.103 124.322 188.091C124.443 188.08 124.564 188.092 124.68 188.127C124.795 188.162 124.903 188.22 124.996 188.297C125.186 188.455 125.306 188.681 125.329 188.926C125.353 189.172 125.278 189.417 125.121 189.607C124.834 189.948 117.931 197.97 103.551 198.4L103.498 198.346Z" fill="#231F20"/>
<path d="M345.837 208.108C345.63 208.11 345.428 208.042 345.265 207.915C345.102 207.788 344.986 207.609 344.938 207.409C344.938 207.086 336.472 174.013 335.303 154.184C335.296 154.064 335.312 153.943 335.352 153.829C335.391 153.716 335.453 153.611 335.533 153.521C335.613 153.431 335.71 153.357 335.819 153.305C335.928 153.252 336.046 153.222 336.166 153.215C336.411 153.2 336.652 153.282 336.837 153.443C337.022 153.604 337.136 153.832 337.155 154.076C338.323 173.726 346.663 206.619 346.735 206.96C346.796 207.198 346.76 207.45 346.635 207.661C346.511 207.873 346.308 208.027 346.07 208.091L345.837 208.108Z" fill="#231F20"/>
<path d="M200.958 214.012C200.836 214.006 200.716 213.974 200.607 213.921C200.497 213.867 200.399 213.792 200.318 213.7C200.238 213.608 200.177 213.501 200.138 213.385C200.1 213.269 200.085 213.147 200.095 213.025L204.553 143.309C204.56 143.187 204.591 143.068 204.645 142.958C204.698 142.849 204.773 142.751 204.866 142.671C204.958 142.59 205.065 142.529 205.181 142.491C205.297 142.453 205.42 142.438 205.542 142.448C205.663 142.452 205.782 142.481 205.892 142.533C206.002 142.585 206.1 142.658 206.18 142.748C206.261 142.839 206.322 142.945 206.361 143.06C206.399 143.175 206.414 143.296 206.404 143.417L201.875 213.133C201.865 213.369 201.765 213.593 201.594 213.757C201.423 213.921 201.195 214.012 200.958 214.012Z" fill="#231F20"/>
<path d="M360.109 175.018C359.942 175.02 359.778 174.976 359.635 174.89C359.493 174.805 359.376 174.681 359.3 174.533L350.6 158.383C350.503 158.147 350.503 157.883 350.6 157.647C350.684 157.406 350.857 157.207 351.085 157.091L378.048 144.368C378.157 144.313 378.277 144.281 378.399 144.273C378.521 144.265 378.643 144.282 378.759 144.322C378.874 144.362 378.981 144.425 379.072 144.507C379.163 144.589 379.236 144.688 379.288 144.799C379.394 145.02 379.407 145.274 379.327 145.506C379.246 145.738 379.077 145.929 378.857 146.037L352.721 158.347L360.594 172.918L387.071 164.843C387.189 164.808 387.313 164.796 387.436 164.808C387.558 164.821 387.677 164.857 387.786 164.916C387.894 164.974 387.99 165.053 388.068 165.148C388.146 165.244 388.204 165.353 388.24 165.471C388.275 165.589 388.287 165.713 388.274 165.835C388.262 165.957 388.225 166.076 388.167 166.185C388.109 166.293 388.029 166.389 387.934 166.466C387.838 166.544 387.728 166.602 387.61 166.638L360.378 175.036L360.109 175.018Z" fill="#231F20"/>
<path d="M383.458 379.788C407.969 379.788 427.838 373.818 427.838 366.454C427.838 359.091 407.969 353.121 383.458 353.121C358.948 353.121 339.078 359.091 339.078 366.454C339.078 373.818 358.948 379.788 383.458 379.788Z" fill="white"/>
<path d="M383.458 380.685C358.078 380.685 338.179 374.44 338.179 366.455C338.179 358.469 358.078 352.224 383.458 352.224C408.839 352.224 428.737 358.469 428.737 366.455C428.737 374.44 408.839 380.685 383.458 380.685ZM383.458 354.019C357.448 354.019 339.977 360.443 339.977 366.455C339.977 372.466 357.448 378.89 383.458 378.89C409.468 378.89 426.94 372.466 426.94 366.455C426.94 360.443 409.468 354.019 383.458 354.019Z" fill="#D1D3D4"/>
<path d="M350.007 328.375L348.946 328.573C345.738 329.051 342.82 330.693 340.75 333.185C339.589 334.955 338.948 337.015 338.901 339.131C338.853 341.246 339.4 343.333 340.48 345.154C345.189 353.624 356.657 355.921 365.501 356.8C366.752 357.004 368.034 356.905 369.24 356.513C369.835 356.31 370.352 355.929 370.722 355.422C371.092 354.914 371.296 354.305 371.307 353.678C371.231 353.162 371.027 352.673 370.713 352.256C370.399 351.839 369.985 351.507 369.509 351.291C368.583 350.862 367.594 350.584 366.58 350.466C361.079 349.568 355.291 348.904 350.258 346.374C347.328 344.885 343.23 341.493 345.369 337.832C346.118 336.673 347.194 335.762 348.461 335.212C353.512 332.808 358.311 334.638 363.29 336.11C363.652 336.242 364.038 336.297 364.423 336.271C364.899 336.14 365.31 335.84 365.578 335.426C365.847 335.013 365.954 334.515 365.879 334.028C365.717 331.857 363.542 330.439 361.493 329.632C357.833 328.244 353.88 327.812 350.007 328.375Z" fill="white"/>
<path d="M366.993 357.787C366.471 357.785 365.949 357.755 365.429 357.697C351.93 356.423 343.518 352.475 339.689 345.585C338.523 343.614 337.936 341.355 337.997 339.066C338.057 336.778 338.762 334.553 340.031 332.646C342.235 329.981 345.344 328.219 348.766 327.693L349.881 327.496C353.93 326.893 358.066 327.344 361.888 328.806C363.686 329.47 366.616 331.031 366.849 333.956C366.94 334.672 366.762 335.396 366.351 335.988C365.94 336.581 365.323 337.002 364.62 337.168C364.109 337.202 363.596 337.135 363.11 336.971L361.816 336.576C357.394 335.23 353.224 333.974 348.928 336.02C347.815 336.49 346.869 337.284 346.214 338.299C345.98 338.669 345.828 339.084 345.769 339.518C345.71 339.951 345.746 340.392 345.872 340.811C346.859 342.932 348.584 344.622 350.726 345.567C355.189 347.506 359.923 348.752 364.764 349.263L366.795 349.586C367.912 349.709 368.999 350.018 370.013 350.501C370.735 350.772 371.351 351.268 371.769 351.915C372.187 352.563 372.386 353.327 372.335 354.095C372.285 354.864 371.988 355.596 371.489 356.183C370.99 356.77 370.315 357.182 369.563 357.356C368.74 357.655 367.869 357.801 366.993 357.787ZM350.151 329.273L349.126 329.452C346.141 329.896 343.42 331.407 341.469 333.705C340.408 335.34 339.827 337.239 339.792 339.186C339.757 341.133 340.27 343.052 341.271 344.723C344.776 351.04 352.739 354.701 365.591 355.903C366.695 356.085 367.827 356.011 368.898 355.688C369.315 355.547 369.681 355.286 369.95 354.938C370.219 354.59 370.378 354.17 370.408 353.732C370.35 353.375 370.205 353.037 369.986 352.749C369.766 352.461 369.479 352.232 369.15 352.081C368.314 351.699 367.422 351.457 366.508 351.363L364.477 351.04C359.452 350.506 354.54 349.199 349.917 347.164C347.328 346.012 345.269 343.93 344.147 341.332C343.95 340.674 343.894 339.982 343.984 339.302C344.074 338.622 344.307 337.968 344.668 337.384C345.501 336.06 346.717 335.021 348.155 334.405C353.08 332.054 357.79 333.472 362.338 334.854L363.632 335.248C363.873 335.337 364.129 335.379 364.387 335.374C364.818 335.374 365.088 334.638 365.052 334.1C364.908 332.09 362.338 330.906 361.241 330.511C357.709 329.164 353.889 328.75 350.151 329.309V329.273Z" fill="#231F20"/>
<path d="M354.159 319.295C354.159 319.295 362.463 360.676 363.146 363.171C363.829 365.665 383.458 375.911 399.096 365.844L412.775 323.548L354.159 319.295Z" fill="white"/>
<path d="M383.8 371.102C379.101 371.064 374.448 370.176 370.067 368.482C366.616 367.154 362.697 365.001 362.266 363.404C361.601 360.91 353.62 321.179 353.278 319.475C353.245 319.34 353.246 319.2 353.279 319.065C353.312 318.931 353.378 318.806 353.469 318.702C353.561 318.598 353.677 318.518 353.806 318.468C353.935 318.418 354.075 318.4 354.213 318.416L412.829 322.759C412.966 322.765 413.1 322.803 413.219 322.87C413.338 322.937 413.441 323.031 413.517 323.144C413.594 323.257 413.643 323.387 413.661 323.522C413.679 323.658 413.665 323.796 413.62 323.925L399.941 366.221C399.874 366.416 399.74 366.581 399.564 366.688C394.853 369.663 389.373 371.198 383.8 371.102ZM355.273 320.282C356.622 327.012 363.416 360.73 364.009 362.937C364.261 363.529 367.496 365.934 373.23 367.675C378.623 369.308 388.941 371.156 398.395 365.27L411.625 324.374L355.273 320.282Z" fill="#231F20"/>
<path d="M412.916 321.708C413.205 314.697 400.291 308.475 384.074 307.811C367.856 307.147 354.476 312.291 354.188 319.302C353.899 326.313 366.813 332.535 383.03 333.2C399.248 333.864 412.628 328.719 412.916 321.708Z" fill="#231F20"/>
<path d="M385.831 334.154C384.878 334.154 383.926 334.154 382.973 334.154C365.987 333.472 352.937 326.976 353.26 319.331C353.584 311.687 367.119 306.303 384.087 307.003C401.056 307.703 414.106 314.181 413.782 321.825C413.638 325.594 410.187 329.003 404.237 331.229C398.328 333.3 392.093 334.29 385.831 334.154ZM381.319 308.654C367.065 308.654 355.291 313.32 355.04 319.421C354.788 325.809 367.622 331.749 383.045 332.377C390.047 332.785 397.06 331.803 403.68 329.488C408.893 327.496 411.949 324.643 412.074 321.682C412.344 315.276 399.492 309.336 384.087 308.708L381.319 308.654Z" fill="#231F20"/>
<path d="M313.212 204.322H218.106C217.868 204.322 217.639 204.228 217.471 204.059C217.302 203.891 217.207 203.663 217.207 203.425V175.395C217.212 175.158 217.308 174.933 217.476 174.765C217.643 174.598 217.869 174.502 218.106 174.498H313.212C313.45 174.498 313.679 174.592 313.847 174.76C314.016 174.929 314.111 175.157 314.111 175.395V203.479C314.097 203.707 313.996 203.922 313.829 204.079C313.662 204.235 313.441 204.322 313.212 204.322ZM219.005 202.528H312.313V176.292H219.005V202.528Z" fill="white"/>
<path d="M489.565 402.955H1.41748V421.743H489.565V402.955Z" fill="white"/>
<path d="M489.583 422.64H1.41755C1.17919 422.64 0.950584 422.546 0.782036 422.377C0.613488 422.209 0.518799 421.981 0.518799 421.743V402.954C0.523401 402.718 0.619569 402.492 0.787131 402.325C0.954692 402.158 1.18063 402.062 1.41755 402.057H489.583C489.82 402.062 490.045 402.158 490.213 402.325C490.381 402.492 490.477 402.718 490.481 402.954V421.743C490.481 421.981 490.387 422.209 490.218 422.377C490.05 422.546 489.821 422.64 489.583 422.64ZM2.3163 420.846H488.684V403.852H2.3163V420.846Z" fill="#D1D3D4"/>
<path d="M412.757 227.489C412.521 227.48 412.297 227.379 412.132 227.209C411.968 227.038 411.877 226.81 411.877 226.574C411.877 224.51 413.189 175.861 418.563 159.011C423.938 142.161 434.022 135.144 434.435 134.875C434.633 134.742 434.876 134.693 435.11 134.738C435.345 134.783 435.551 134.92 435.685 135.117C435.818 135.315 435.868 135.557 435.822 135.791C435.776 136.025 435.64 136.231 435.442 136.365C435.334 136.365 425.502 143.166 420.271 159.549C415.04 175.933 413.692 226.107 413.674 226.61C413.672 226.727 413.646 226.844 413.599 226.952C413.552 227.06 413.483 227.157 413.398 227.239C413.313 227.321 413.213 227.385 413.103 227.428C412.993 227.47 412.875 227.491 412.757 227.489Z" fill="white"/>
<path d="M226.192 196L228.607 181.455H232.122L231.107 187.605H231.298L237.122 181.455H241.263L235.048 187.946L238.94 196H234.736L232.094 190.283L230.361 192.08L229.707 196H226.192ZM243.282 196.185C242.59 196.185 241.994 196.069 241.492 195.837C240.995 195.6 240.63 195.242 240.398 194.764C240.171 194.286 240.116 193.689 240.235 192.974C240.339 192.368 240.531 191.859 240.81 191.447C241.094 191.031 241.442 190.692 241.854 190.432C242.271 190.171 242.735 189.973 243.246 189.835C243.757 189.698 244.292 189.606 244.851 189.558C245.476 189.501 245.983 189.44 246.371 189.374C246.764 189.307 247.058 189.215 247.252 189.097C247.446 188.973 247.564 188.803 247.607 188.585V188.55C247.664 188.185 247.586 187.903 247.373 187.705C247.159 187.506 246.84 187.406 246.414 187.406C245.959 187.406 245.571 187.506 245.249 187.705C244.927 187.903 244.702 188.178 244.574 188.528L241.392 188.415C241.591 187.752 241.932 187.16 242.415 186.639C242.898 186.114 243.511 185.702 244.255 185.403C245.003 185.1 245.867 184.949 246.847 184.949C247.538 184.949 248.163 185.032 248.722 185.197C249.281 185.358 249.752 185.595 250.135 185.908C250.524 186.215 250.801 186.594 250.966 187.044C251.132 187.494 251.167 188.008 251.073 188.585L249.83 196H246.563L246.819 194.48H246.733C246.478 194.849 246.177 195.162 245.831 195.418C245.49 195.673 245.107 195.865 244.681 195.993C244.255 196.121 243.788 196.185 243.282 196.185ZM244.745 193.912C245.109 193.912 245.455 193.836 245.782 193.685C246.108 193.533 246.383 193.325 246.605 193.06C246.833 192.79 246.977 192.477 247.039 192.122L247.202 191.085C247.103 191.137 246.977 191.185 246.826 191.227C246.674 191.27 246.513 191.31 246.343 191.348C246.172 191.381 245.997 191.414 245.817 191.447C245.642 191.476 245.474 191.502 245.313 191.526C244.972 191.578 244.676 191.658 244.425 191.767C244.174 191.876 243.973 192.018 243.821 192.193C243.675 192.364 243.585 192.567 243.551 192.804C243.495 193.159 243.578 193.434 243.8 193.628C244.023 193.817 244.337 193.912 244.745 193.912ZM257.841 181.455L255.426 196H251.953L254.368 181.455H257.841ZM256.977 200.091L259.491 185.091H262.928L262.623 186.959H262.729C262.919 186.627 263.17 186.308 263.482 186C263.799 185.692 264.181 185.441 264.626 185.247C265.071 185.048 265.58 184.949 266.153 184.949C266.91 184.949 267.585 185.148 268.177 185.545C268.769 185.943 269.2 186.556 269.469 187.385C269.739 188.214 269.768 189.269 269.555 190.553C269.351 191.788 268.982 192.823 268.447 193.656C267.916 194.49 267.287 195.115 266.558 195.531C265.828 195.948 265.064 196.156 264.263 196.156C263.714 196.156 263.25 196.066 262.871 195.886C262.497 195.706 262.201 195.47 261.984 195.176C261.766 194.883 261.614 194.568 261.529 194.232H261.43L260.464 200.091H256.977ZM261.984 190.545C261.889 191.133 261.884 191.644 261.969 192.08C262.055 192.515 262.228 192.854 262.488 193.095C262.753 193.332 263.096 193.45 263.518 193.45C263.944 193.45 264.323 193.332 264.654 193.095C264.99 192.854 265.272 192.515 265.499 192.08C265.727 191.644 265.892 191.133 265.996 190.545C266.086 189.958 266.089 189.449 266.004 189.018C265.923 188.588 265.755 188.254 265.499 188.017C265.244 187.78 264.9 187.662 264.469 187.662C264.048 187.662 263.665 187.778 263.319 188.01C262.978 188.242 262.694 188.573 262.467 189.004C262.239 189.435 262.078 189.949 261.984 190.545ZM275.54 196.206C274.399 196.206 273.452 195.981 272.699 195.531C271.951 195.077 271.426 194.43 271.123 193.592C270.819 192.75 270.765 191.748 270.959 190.588C271.149 189.461 271.534 188.476 272.117 187.634C272.704 186.786 273.443 186.128 274.333 185.659C275.223 185.186 276.215 184.949 277.309 184.949C278.085 184.949 278.774 185.07 279.375 185.311C279.977 185.553 280.474 185.912 280.867 186.391C281.26 186.864 281.527 187.446 281.669 188.138C281.811 188.829 281.807 189.622 281.655 190.517L281.52 191.384H272.046L272.365 189.366H278.615C278.672 188.997 278.641 188.668 278.523 188.379C278.405 188.09 278.213 187.866 277.948 187.705C277.687 187.539 277.368 187.456 276.989 187.456C276.605 187.456 276.246 187.546 275.909 187.726C275.578 187.901 275.296 188.138 275.064 188.436C274.832 188.734 274.681 189.071 274.61 189.445L274.233 191.511C274.158 191.971 274.179 192.364 274.297 192.69C274.416 193.017 274.619 193.268 274.908 193.443C275.197 193.614 275.569 193.699 276.023 193.699C276.326 193.699 276.61 193.659 276.875 193.578C277.141 193.493 277.377 193.367 277.586 193.202C277.799 193.031 277.971 192.825 278.104 192.584L281.272 192.676C281.016 193.391 280.621 194.014 280.086 194.544C279.551 195.07 278.897 195.479 278.125 195.773C277.358 196.062 276.497 196.206 275.54 196.206ZM293.28 188.422L290.148 188.507C290.152 188.275 290.1 188.071 289.991 187.896C289.883 187.716 289.729 187.577 289.53 187.477C289.331 187.378 289.094 187.328 288.82 187.328C288.375 187.328 287.974 187.428 287.619 187.626C287.269 187.825 287.072 188.083 287.03 188.401C286.997 188.571 287.044 188.72 287.172 188.848C287.3 188.971 287.584 189.08 288.024 189.175L290.07 189.572C291.121 189.781 291.883 190.143 292.357 190.659C292.835 191.17 293.005 191.848 292.868 192.69C292.745 193.41 292.428 194.033 291.916 194.558C291.41 195.084 290.763 195.491 289.977 195.78C289.196 196.064 288.332 196.206 287.385 196.206C285.785 196.206 284.577 195.884 283.763 195.24C282.953 194.591 282.574 193.732 282.626 192.662L286.007 192.577C286.021 192.979 286.156 193.282 286.412 193.486C286.672 193.685 287.025 193.789 287.47 193.798C287.958 193.808 288.379 193.706 288.734 193.493C289.089 193.28 289.288 193.017 289.331 192.705C289.359 192.501 289.291 192.342 289.125 192.229C288.964 192.115 288.663 192.013 288.223 191.923L286.376 191.561C285.316 191.357 284.549 190.974 284.075 190.411C283.607 189.842 283.446 189.118 283.592 188.237C283.715 187.536 284.004 186.942 284.459 186.455C284.918 185.962 285.517 185.588 286.256 185.332C286.999 185.077 287.847 184.949 288.798 184.949C290.323 184.949 291.473 185.259 292.25 185.879C293.031 186.495 293.375 187.342 293.28 188.422ZM298.555 189.778L297.518 196H294.045L296.46 181.455H299.819L298.896 187.094H299.017C299.367 186.421 299.855 185.896 300.48 185.517C301.105 185.138 301.829 184.949 302.653 184.949C303.411 184.949 304.045 185.119 304.556 185.46C305.068 185.796 305.43 186.272 305.643 186.888C305.856 187.503 305.894 188.223 305.757 189.047L304.592 196H301.119L302.17 189.729C302.265 189.123 302.187 188.649 301.936 188.308C301.685 187.967 301.282 187.797 300.728 187.797C300.364 187.797 300.028 187.877 299.72 188.038C299.417 188.195 299.163 188.42 298.96 188.713C298.756 189.007 298.621 189.362 298.555 189.778Z" fill="white"/>
</svg>
